<?xml version="1.0" encoding="UTF-8" standalone="no"?>
<!-- Created with Inkscape (http://www.inkscape.org/) -->

<svg
   width="67.495956mm"
   height="64.524757mm"
   viewBox="0 0 67.495958 64.524757"
   version="1.1"
   id="svg589"
   xml:space="preserve"
   xmlns="http://www.w3.org/2000/svg"
   xmlns:svg="http://www.w3.org/2000/svg"><defs
     id="defs586" /><g
     id="layer1"
     transform="translate(-97.571803,-30.055437)"><path
       style="fill:#6a6a6a;fill-opacity:1;stroke-width:0.264583"
       d="m 137.61898,41.062104 -0.89958,-0.899583 v -4.147853 -4.147852 l 0.75394,-0.75394 c 1.55296,-1.552965 4.16162,-1.149086 5.13263,0.794645 0.61933,1.239772 0.67015,7.034846 0.0718,8.191861 -0.63581,1.229523 -1.64764,1.862305 -2.97785,1.862305 -0.99077,0 -1.32655,-0.145151 -2.08098,-0.899583 z"
       id="path433" /><path
       style="fill:#747474;fill-opacity:1;stroke-width:0.264583"
       d="m 111.11436,41.43141 c -0.47657,-0.290565 -0.98258,-0.833651 -1.12447,-1.20686 -0.4235,-1.11388 -0.32585,-7.682917 0.12723,-8.559074 0.40747,-0.787976 1.82525,-1.610039 2.77676,-1.610039 0.80932,0 1.99076,0.665967 2.63549,1.485604 0.50019,0.635888 0.55253,1.051169 0.55253,4.38405 0,4.09645 -0.23667,4.94118 -1.57884,5.635243 -1.0646,0.550524 -2.35481,0.501438 -3.3887,-0.128924 z"
       id="path431" /><path
       style="fill:#686868;fill-opacity:1;stroke-width:0.264583"
       d="m 121.63815,59.821063 v -4.101042 l 4.69635,-2.65e-4 4.69636,-2.64e-4 -0.0791,4.101422 -0.0791,4.10119 h -4.61727 -4.61727 z"
       id="path429" /><path
       style="fill:#686868;fill-opacity:1;stroke-width:0.264583"
       d="m 106.5569,59.821063 v -4.101042 h 4.7625 4.7625 v 4.101042 4.101041 h -4.7625 -4.7625 z"
       id="path427" /><path
       style="fill:#686868;fill-opacity:1;stroke-width:0.264583"
       d="m 137.71158,63.972277 -0.99218,-0.08212 v -4.085071 -4.085069 h 4.6302 4.63021 v 4.087095 4.087096 l -3.63802,0.08009 c -2.00091,0.04405 -4.0845,0.04314 -4.63021,-0.0021 z"
       id="path425" /><path
       style="fill:#686868;fill-opacity:1;stroke-width:0.264583"
       d="m 121.63815,72.917938 v -4.233334 h 4.63021 4.6302 v 4.233334 4.233333 h -4.6302 -4.63021 z"
       id="path423" /><path
       style="fill:#686868;fill-opacity:1;stroke-width:0.264583"
       d="m 106.5569,72.917938 v -4.233334 h 4.7625 4.7625 v 4.233334 4.233333 h -4.7625 -4.7625 z"
       id="path421" /><path
       style="fill:#bababa;fill-opacity:1;stroke-width:0.264583"
       d="m 101.16925,84.701207 c -1.304245,-0.464952 -2.482948,-1.57276 -3.106574,-2.919727 -0.463352,-1.000795 -0.489992,-2.151584 -0.489992,-21.166667 0,-22.530277 -0.103186,-21.292851 1.923987,-23.072732 1.290489,-1.133065 2.413989,-1.398006 5.935749,-1.399751 l 2.97656,-0.0015 v 1.810469 c 0,2.381221 0.74402,3.863819 2.37067,4.724015 1.91357,1.011921 3.9114,0.682408 5.33239,-0.879502 0.91111,-1.00146 1.29277,-2.215001 1.29277,-4.110483 v -1.551538 l 8.92969,0.06967 8.92969,0.06967 0.13229,2.116666 c 0.14503,2.320494 0.54128,3.167227 1.95314,4.173622 0.63486,0.45253 1.19559,0.588152 2.43308,0.588468 1.36483,3.44e-4 1.75932,-0.114935 2.60776,-0.762072 1.30139,-0.992618 1.73727,-2.100026 1.73727,-4.413767 v -1.885954 l 3.67867,0.09152 c 3.63951,0.09054 3.69092,0.100357 4.82865,0.921697 0.69193,0.499516 1.43978,1.380971 1.87758,2.213026 l 0.7276,1.382847 v 10.85079 10.850776 l -0.8599,-0.178908 c -0.47294,-0.0984 -1.42544,-0.248928 -2.11666,-0.33451 L 151.0069,61.73173 v -3.958056 c 0,-4.524118 -0.25806,-5.443321 -1.72334,-6.138642 -0.79532,-0.377407 -3.25543,-0.414302 -23.41557,-0.351175 l -22.52688,0.07054 -0.90565,0.988302 -0.90565,0.988302 v 12.817338 12.81734 l 0.89114,0.94488 0.89114,0.94488 h 14.43848 14.43849 l 0.17183,1.256771 c 0.0945,0.691224 0.2708,1.643724 0.39176,2.116666 l 0.21993,0.859896 -15.39066,-0.01162 c -12.37567,-0.0093 -15.59086,-0.08298 -16.41267,-0.375948 z"
       id="path419" /><path
       style="fill:#bababa;fill-opacity:1;stroke-width:0.264583"
       d="m 147.96419,85.652281 c -0.43656,-0.271066 -1.65695,-1.389023 -2.71198,-2.484353 -1.98206,-2.057776 -2.28108,-2.77346 -1.56687,-3.750202 0.69012,-0.943787 1.69609,-0.599982 3.51275,1.200534 l 1.69613,1.681054 3.50728,-3.500064 c 3.69633,-3.688721 4.36104,-4.066199 5.31126,-3.016208 0.95002,1.049761 0.62158,1.563642 -3.87048,6.055699 -2.3696,2.3696 -4.48296,4.307919 -4.69635,4.307374 -0.2134,-5.29e-4 -0.74518,-0.222769 -1.18174,-0.493834 z"
       id="path417" /><path
       style="fill:#bababa;fill-opacity:1;stroke-width:0.264583"
       d="M 146.57753,94.082597 C 140.28157,92.432757 135.674,86.451952 135.674,79.929396 c 0,-5.430583 3.20919,-10.593893 8.12028,-13.064855 3.27669,-1.648624 6.65679,-2.010704 10.23272,-1.096134 2.82644,0.722881 4.46939,1.669081 6.66366,3.837715 5.68796,5.621483 5.85224,14.48862 0.37654,20.323529 -3.73435,3.979326 -9.18767,5.542326 -14.48967,4.152946 z m 7.1247,-3.166661 c 10.81891,-3.341619 10.81891,-18.631461 0,-21.97308 -6.62333,-2.04574 -13.48302,2.273972 -14.62883,9.212131 -1.36719,8.278632 6.61039,15.2376 14.62883,12.760949 z"
       id="path305" /></g></svg>
