<?xml version="1.0" encoding="UTF-8" standalone="no"?>
<!-- Created with Inkscape (http://www.inkscape.org/) -->

<svg
   width="127mm"
   height="95.250107mm"
   viewBox="0 0 127 95.250107"
   version="1.1"
   id="svg589"
   inkscape:export-filename="404.svg"
   inkscape:export-xdpi="96"
   inkscape:export-ydpi="96"
   sodipodi:docname="b.svg"
   xml:space="preserve"
   xmlns:inkscape="http://www.inkscape.org/namespaces/inkscape"
   xmlns:sodipodi="http://sodipodi.sourceforge.net/DTD/sodipodi-0.dtd"
   xmlns="http://www.w3.org/2000/svg"
   xmlns:svg="http://www.w3.org/2000/svg"><sodipodi:namedview
     id="namedview591"
     pagecolor="#ffffff"
     bordercolor="#000000"
     borderopacity="0.25"
     inkscape:showpageshadow="2"
     inkscape:pageopacity="0.0"
     inkscape:pagecheckerboard="0"
     inkscape:deskcolor="#d1d1d1"
     inkscape:document-units="mm"
     showgrid="false"><sodipodi:guide
       position="-20.308682,109.54488"
       orientation="0,443.5918"
       id="guide557"
       inkscape:locked="false" /><sodipodi:guide
       position="97.058316,109.54488"
       orientation="311.9127,0"
       id="guide559"
       inkscape:locked="false" /><sodipodi:guide
       position="97.058316,27.01798"
       orientation="0,-443.5918"
       id="guide561"
       inkscape:locked="false" /><sodipodi:guide
       position="-20.308682,27.01798"
       orientation="-311.9127,0"
       id="guide563"
       inkscape:locked="false" /></sodipodi:namedview><defs
     id="defs586"><linearGradient
       id="prefix__paint0_linear"
       x1="328.81"
       y1="424.03201"
       x2="505.39301"
       y2="26.048"
       gradientUnits="userSpaceOnUse"><stop
         stop-color="#2065D1"
         id="stop503"
         offset="0"
         style="stop-color:#fffb48;stop-opacity:1;" /><stop
         offset="1"
         stop-color="#2065D1"
         stop-opacity=".01"
         id="stop505"
         style="stop-color:#e23a12;stop-opacity:0.01000001;" /></linearGradient><linearGradient
       id="prefix__paint1_linear"
       x1="135.297"
       y1="97.623001"
       x2="182.10899"
       y2="144.436"
       gradientUnits="userSpaceOnUse"><stop
         stop-color="#FFE16A"
         id="stop508" /><stop
         offset="1"
         stop-color="#B78103"
         id="stop510" /></linearGradient><filter
       id="prefix__filter0_d"
       x="51"
       y="49"
       width="394.621"
       height="277.61099"
       filterUnits="userSpaceOnUse"
       color-interpolation-filters="sRGB"><feFlood
         flood-opacity="0"
         result="BackgroundImageFix"
         id="feFlood513" /><feColorMatrix
         in="SourceAlpha"
         values="0 0 0 0 0 0 0 0 0 0 0 0 0 0 0 0 0 0 127 0"
         id="feColorMatrix515" /><feOffset
         dx="8"
         dy="8"
         id="feOffset517" /><feGaussianBlur
         stdDeviation="6"
         id="feGaussianBlur519" /><feColorMatrix
         values="0 0 0 0 0 0 0 0 0 0 0 0 0 0 0 0 0 0 0.12 0"
         id="feColorMatrix521" /><feBlend
         in2="BackgroundImageFix"
         result="effect1_dropShadow"
         id="feBlend523"
         mode="normal" /><feBlend
         in="SourceGraphic"
         in2="effect1_dropShadow"
         result="shape"
         id="feBlend525"
         mode="normal" /></filter></defs><g
     inkscape:label="Layer 1"
     inkscape:groupmode="layer"
     id="layer1"
     transform="translate(-79.076795,-34.06358)"><g
       style="fill:none"
       id="g555"
       transform="matrix(0.26458333,0,0,0.26458333,79.076795,34.063591)"><path
         fill-rule="evenodd"
         clip-rule="evenodd"
         d="m 0,198.781 c 0,41.457 14.945,79.235 39.539,107.785 28.214,32.765 69.128,53.365 114.734,53.434 a 148.458,148.458 0 0 0 56.495,-11.036 c 9.051,-3.699 19.182,-3.274 27.948,1.107 a 75.774,75.774 0 0 0 33.957,8.011 c 5.023,0 9.942,-0.495 14.7,-1.434 13.581,-2.67 25.94,-8.99 36.089,-17.94 6.379,-5.627 14.548,-8.456 22.898,-8.446 h 0.142 c 27.589,0 53.215,-8.732 74.492,-23.696 19.021,-13.36 34.554,-31.696 44.904,-53.225 C 474.92,234.581 480,213.388 480,190.958 480,114.027 420.226,51.653 346.502,51.653 c -7.516,0 -14.88,0.663 -22.063,1.899 C 305.418,21.42 271.355,0 232.498,0 A 103.647,103.647 0 0 0 186.619,10.661 C 173.379,17.148 161.608,26.366 151.978,37.6 119.281,38.144 89.048,49.29 64.303,67.891 25.351,97.155 0,144.882 0,198.781 Z"
         fill="url(#prefix__paint0_linear)"
         opacity="0.2"
         id="path489"
         style="fill:url(#prefix__paint0_linear)" /><g
         filter="url(#prefix__filter0_d)"
         id="g501"><circle
           opacity="0.15"
           cx="182.10899"
           cy="97.623001"
           r="44.623001"
           fill="#ffc107"
           id="circle491" /><circle
           cx="182.10899"
           cy="97.623001"
           r="23.406"
           fill="url(#prefix__paint1_linear)"
           id="circle493"
           style="fill:url(#prefix__paint1_linear)" /><path
           fill-rule="evenodd"
           clip-rule="evenodd"
           d="m 244.878,306.611 c 34.56,0 62.575,-28.016 62.575,-62.575 0,-34.56 -28.015,-62.576 -62.575,-62.576 -34.559,0 -62.575,28.016 -62.575,62.576 0,34.559 28.016,62.575 62.575,62.575 z m 0,-23.186 c 21.754,0 39.389,-17.635 39.389,-39.389 0,-21.755 -17.635,-39.39 -39.389,-39.39 -21.754,0 -39.389,17.635 -39.389,39.39 0,21.754 17.635,39.389 39.389,39.389 z"
           fill="#061b64"
           id="path495"
           style="fill:#ffac0a;fill-opacity:1" /><path
           fill-rule="evenodd"
           clip-rule="evenodd"
           d="m 174.965,264.592 c 0,-4.133 -1.492,-5.625 -5.637,-5.625 h -11.373 v -66.611 c 0,-4.476 -1.492,-5.637 -5.638,-5.637 h -9.172 a 9.866,9.866 0 0 0 -7.948,3.974 l -55.03,68.274 a 11.006,11.006 0 0 0 -1.957,6.787 v 5.968 c 0,4.145 1.492,5.637 5.625,5.637 h 54.676 v 21.707 c 0,4.133 1.492,5.625 5.625,5.625 h 8.12 c 4.146,0 5.638,-1.492 5.638,-5.625 v -21.707 h 11.434 c 4.414,0 5.637,-1.492 5.637,-5.637 z m -72.42,-5.625 35.966,-44.415 v 44.415 z m 309.062,5.625 c 0,-4.133 -1.492,-5.625 -5.638,-5.625 h -11.422 v -66.611 c 0,-4.476 -1.492,-5.637 -5.637,-5.637 h -9.111 a 9.87,9.87 0 0 0 -7.949,3.974 l -55.03,68.274 a 11.011,11.011 0 0 0 -1.981,6.787 v 5.968 c 0,4.145 1.492,5.637 5.626,5.637 h 54.687 v 21.707 c 0,4.133 1.492,5.625 5.626,5.625 h 8.12 c 4.145,0 5.637,-1.492 5.637,-5.625 v -21.707 h 11.434 c 4.476,0 5.638,-1.492 5.638,-5.637 z m -72.42,-5.625 35.965,-44.415 v 44.415 z"
           fill="#2065d1"
           id="path497"
           style="fill:#ff6e0b;fill-opacity:1" /><path
           opacity="0.24"
           d="m 425.621,117.222 a 8.267,8.267 0 0 0 -9.599,-8.157 11.129,11.129 0 0 0 -9.784,-5.87 h -0.403 a 13.23,13.23 0 0 0 -20.365,-14.078 13.23,13.23 0 0 0 -5.316,14.078 h -0.403 a 11.153,11.153 0 1 0 0,22.293 h 38.68 v -0.073 a 8.279,8.279 0 0 0 7.19,-8.193 z m -321.363,81.823 a 7.093,7.093 0 0 0 -7.093,-7.092 c -0.381,0.007 -0.761,0.039 -1.138,0.097 a 9.552,9.552 0 0 0 -8.425,-5.026 h -0.343 a 11.348,11.348 0 1 0 -22.012,0 h -0.342 a 9.564,9.564 0 1 0 0,19.114 h 33.177 v -0.061 a 7.107,7.107 0 0 0 6.176,-7.032 z"
           fill="#2065d1"
           id="path499" /></g></g></g></svg>
