<?xml version="1.0" encoding="UTF-8" standalone="no"?>
<!-- Created with Inkscape (http://www.inkscape.org/) -->

<svg
   width="117.367mm"
   height="82.526901mm"
   viewBox="0 0 117.367 82.526901"
   version="1.1"
   id="svg589"
   inkscape:export-filename="b.svg"
   inkscape:export-xdpi="96"
   inkscape:export-ydpi="96"
   xmlns:inkscape="http://www.inkscape.org/namespaces/inkscape"
   xmlns:sodipodi="http://sodipodi.sourceforge.net/DTD/sodipodi-0.dtd"
   xmlns="http://www.w3.org/2000/svg"
   xmlns:svg="http://www.w3.org/2000/svg">
  <sodipodi:namedview
     id="namedview591"
     pagecolor="#ffffff"
     bordercolor="#000000"
     borderopacity="0.25"
     inkscape:showpageshadow="2"
     inkscape:pageopacity="0.0"
     inkscape:pagecheckerboard="0"
     inkscape:deskcolor="#d1d1d1"
     inkscape:document-units="mm"
     showgrid="false" />
  <defs
     id="defs586" />
  <g
     inkscape:label="Layer 1"
     inkscape:groupmode="layer"
     id="layer1"
     transform="translate(-58.768113,-19.768806)">
    <g
       id="g362"
       transform="translate(15.828353,28.661802)">
      <path
         style="fill:#fdfdfd;stroke-width:0.264583"
         d="m 74.240236,73.162135 c 1.292175,-0.587023 2.595999,-2.021245 3.078575,-3.386468 0.263771,-0.74622 0.358738,-2.695866 0.358738,-7.364881 v -6.35 l -1.389062,-0.07997 c -1.340438,-0.07717 -1.389063,-0.05586 -1.389063,0.608777 v 0.688751 l -0.957802,-0.730552 c -1.310005,-0.999188 -3.723921,-1.178446 -5.469745,-0.406186 -2.946341,1.303306 -4.187122,5.633773 -2.478352,8.649729 1.21829,2.150269 3.465359,3.173627 5.992577,2.729143 0.653246,-0.114893 1.516449,-0.451935 1.91823,-0.748985 l 0.730509,-0.540086 v 1.181319 c 0,2.385264 -0.983732,3.446598 -3.164102,3.413705 -1.607905,-0.02426 -2.344558,-0.431911 -2.814974,-1.557772 -0.365209,-0.874069 -0.427244,-0.904745 -1.829684,-0.904745 -1.284719,0 -1.451657,0.06207 -1.451657,0.539708 0,1.399256 1.74508,3.596161 3.439583,4.330133 1.299229,0.562758 4.11152,0.525643 5.426229,-0.07162 z m -4.30403,-8.588441 c -1.01641,-0.564481 -1.500405,-1.518134 -1.497187,-2.950038 0.0051,-2.265378 1.4009,-3.560154 3.475095,-3.223559 2.091169,0.339349 3.2868,2.737803 2.349471,4.713076 -0.755083,1.591222 -2.830663,2.291747 -4.327379,1.460521 z m 31.421554,5.331597 v -3.485705 l 0.65063,0.611238 c 0.9913,0.93128 3.06666,1.381067 4.73285,1.025736 3.53185,-0.753194 5.35708,-5.267065 3.71701,-9.192299 -0.83309,-1.993871 -2.70645,-3.188729 -4.99945,-3.188729 -1.50577,0 -3.48662,0.788011 -3.76708,1.498602 -0.15026,0.380701 -0.21494,0.317712 -0.32816,-0.319598 -0.13321,-0.749794 -0.21786,-0.798179 -1.528618,-0.873723 l -1.3876,-0.07997 v 8.745077 8.745077 h 1.455209 1.455209 z m 1.93535,-4.825235 c -1.20658,-0.544565 -1.75689,-1.759476 -1.60834,-3.550745 0.1014,-1.222841 0.25525,-1.57653 0.95939,-2.20568 0.67642,-0.604383 1.08677,-0.749303 2.12168,-0.749303 2.21747,0 3.4575,1.637273 3.09101,4.081214 -0.32159,2.144564 -2.55504,3.331098 -4.56374,2.424514 z m 15.78824,2.527078 c 1.16251,-0.54669 2.12016,-1.961362 2.12016,-3.131947 0,-1.981888 -1.24739,-3.096268 -4.23333,-3.781925 -2.17148,-0.498634 -2.88677,-1.311037 -1.96548,-2.232327 0.8359,-0.835903 3.02381,-0.245583 3.02381,0.815859 0,0.251862 0.39675,0.355867 1.35753,0.355867 h 1.35754 l -0.15643,-0.963983 c -0.29083,-1.792142 -2.01746,-3.004767 -4.27843,-3.004767 -2.6174,0 -4.36563,1.502072 -4.36563,3.750927 0,1.152408 0.11675,1.445823 0.87832,2.207392 0.59267,0.592669 1.38862,1.016614 2.4474,1.303549 2.12675,0.576366 2.87731,0.989089 2.97091,1.633667 0.1198,0.825098 -0.5467,1.199052 -1.9745,1.107821 -1.0923,-0.06979 -1.32505,-0.185859 -1.62249,-0.809085 -0.30968,-0.648854 -0.48888,-0.727604 -1.65574,-0.727604 -1.46245,0 -1.56807,0.18946 -0.94154,1.688957 0.91162,2.181804 4.34516,3.053911 7.0379,1.787599 z m 10.36332,0.0637 c 0.3864,-0.194103 0.89241,-0.542792 1.12448,-0.774861 0.3862,-0.386199 0.42194,-0.36431 0.42194,0.258416 0,0.648287 0.0686,0.680357 1.45521,0.680357 h 1.45521 v -5.953125 -5.953124 h -1.45521 -1.45521 l -0.006,3.241145 c -0.01,5.067192 -0.36402,5.976903 -2.41693,6.208295 -0.89555,0.100941 -1.30268,0.01064 -1.8132,-0.402156 -0.63965,-0.517208 -0.66211,-0.651341 -0.79064,-4.723659 l -0.13228,-4.191334 -1.52136,-0.07935 -1.52135,-0.07935 0.006,4.444976 c 0.006,4.922633 0.31366,6.19761 1.71459,7.115532 1.34755,0.882954 3.41822,0.970325 4.93526,0.208237 z m -68.417155,-0.07231 c 2.842366,-1.290974 4.156676,-5.364962 2.73905,-8.49027 -0.726086,-1.600732 -1.202089,-2.087097 -2.757767,-2.817799 -2.272129,-1.067216 -5.006531,-0.779963 -6.820699,0.716528 -1.517042,1.251395 -2.141366,2.667881 -2.151731,4.881917 -0.01779,3.799681 2.38163,6.217118 6.158373,6.204619 1.132241,-0.0038 2.1382,-0.179527 2.832774,-0.494995 z m -3.987467,-2.397448 c -0.291041,-0.120383 -0.826823,-0.539147 -1.190625,-0.930587 -0.891874,-0.959628 -0.949645,-3.416991 -0.107021,-4.552278 1.217064,-1.639779 3.88333,-1.641507 4.882296,-0.0032 0.645631,1.058857 0.703611,3.501332 0.103456,4.358174 -0.804597,1.14872 -2.433417,1.64683 -3.688106,1.127855 z M 87.9963,67.597715 c 2.175349,-1.007155 3.340365,-2.990416 3.340365,-5.686457 0,-2.761422 -1.064491,-4.566488 -3.309401,-5.611775 -3.324834,-1.548127 -7.336502,-0.140891 -8.533514,2.99344 -1.253813,3.283061 0.0642,7.00468 2.944029,8.312962 1.427004,0.648274 4.149313,0.644271 5.558521,-0.0082 z m -4.075536,-2.464586 c -2.186752,-1.172866 -2.446888,-4.85975 -0.435859,-6.177425 0.942433,-0.617506 2.658626,-0.583166 3.540075,0.07084 1.510136,1.120462 1.689656,3.910689 0.348197,5.411906 -0.815234,0.912323 -2.437882,1.238827 -3.452413,0.694682 z M 50.293173,58.971203 v -8.863542 h -1.5875 -1.5875 v 8.863542 8.863541 h 1.5875 1.5875 z m 45.772919,2.910416 v -5.953124 h -1.5875 -1.5875 v 5.953124 5.953125 h 1.5875 1.5875 z m 43.439188,1.828549 0.0848,-4.124576 0.74236,-0.637924 c 0.94871,-0.81525 2.06473,-0.815218 3.01257,8.5e-5 l 0.74173,0.638008 0.095,4.124492 0.095,4.124491 h 1.40832 1.40831 l 0.0848,-4.124576 0.0848,-4.124576 0.74236,-0.637924 c 0.9111,-0.782923 2.00219,-0.816316 2.92612,-0.08955 l 0.69714,0.54837 v 4.21413 4.214129 h 1.60456 1.60456 l -0.0832,-4.564062 c -0.0691,-3.789095 -0.16599,-4.730549 -0.57082,-5.544555 -1.18577,-2.384333 -5.5562,-2.786145 -7.22526,-0.664282 -0.50874,0.64675 -0.53602,0.651777 -0.84571,0.155885 -1.01208,-1.620597 -3.95838,-2.076791 -5.71479,-0.884857 -0.97373,0.660789 -0.98753,0.66225 -1.12942,0.11965 -0.1255,-0.479912 -0.31483,-0.539358 -1.49855,-0.470524 l -1.3549,0.07879 -0.0712,5.886979 -0.0712,5.886979 h 1.57394 1.57393 z M 95.867654,52.965775 c 0.618575,-0.715385 0.585018,-1.677783 -0.08174,-2.344547 -1.230747,-1.230746 -3.579101,0.17099 -3.007831,1.795383 0.487092,1.385039 2.116405,1.674644 3.089576,0.549164 z M 77.552198,44.011363 c 3.226438,-0.396415 5.066342,-0.938988 8.062852,-2.377665 5.625097,-2.700708 8.856811,-6.982915 12.33333,-16.342381 1.324153,-3.564879 2.77934,-9.299688 3.19516,-12.591989 0.17554,-1.389847 0.35708,-2.489085 0.40341,-2.442753 0.0463,0.04633 0.3157,1.501079 0.5986,3.232767 1.46079,8.941864 5.3893,19.030757 9.10576,23.384695 3.30067,3.866832 8.3677,6.417238 14.17659,7.13555 2.28249,0.282245 35.15167,0.408768 34.87715,0.134253 -0.0786,-0.07864 -1.61654,-0.371015 -3.41754,-0.649711 C 142.86005,41.323445 131.18471,37.034594 121.73068,30.579523 115.84812,26.563 111.98696,22.854272 108.45555,17.828496 105.30121,13.339334 102.99992,7.7651042 101.84704,1.8212046 l -0.30791,-1.5875 -0.46377,2.5135416 c -0.67227,3.6434912 -1.399782,5.7829202 -3.283976,9.6572918 -2.162865,4.447389 -4.532492,7.729251 -8.325443,11.530483 -9.920264,9.941927 -24.802137,16.704481 -42.987829,19.534343 -1.86549,0.290287 -3.456975,0.592971 -3.536633,0.672631 -0.274087,0.274085 32.317908,0.151075 34.610719,-0.130632 z M 133.79487,32.358052 c 0.94015,-4.030096 0.94407,-10.666965 0.009,-14.926431 -1.44791,-6.594146 -4.39148,-11.8467054 -9.4154,-16.80104141 -6.40544,-6.31672639 -14.0766,-9.52577049 -22.76592,-9.52357419 -11.206285,0.00283 -21.76133,5.8512669 -27.739807,15.3703262 -4.363565,6.9477624 -6.164647,15.4839244 -4.950207,23.4613094 0.480391,3.155559 0.858835,4.295593 1.423554,4.288327 0.243377,-0.0031 1.514065,-0.574781 2.823752,-1.270333 2.716353,-1.442609 2.521583,-0.917988 2.031093,-5.470848 -1.212419,-11.253993 4.786453,-22.1004307 14.993192,-27.10888541 2.568131,-1.26018233 4.124516,-1.76818549 6.929726,-2.26185719 7.178737,-1.2633415 14.595897,0.5906785 20.446097,5.1107804 2.27129,1.7548925 2.65263,2.1228279 4.33572,4.1834005 2.58247,3.1616527 4.31458,6.6148797 5.42203,10.8096847 0.44327,1.679 0.56579,2.953329 0.58571,6.091877 0.0139,2.182813 -0.0739,4.742656 -0.19502,5.688542 l -0.2202,1.719791 2.73374,1.362618 c 1.50356,0.74944 2.82957,1.272741 2.94669,1.162891 0.11712,-0.10985 0.39002,-0.958808 0.60646,-1.886577 z"
         id="path378"
         sodipodi:nodetypes="ssscsscssssscssssssssssssccsssssssccccccsssssssssssscssssssssssscsssccccccsssccccsccssssscscsssscccssssccssssssccccccccccccccccccccsscccccccsscccccsssssssccccccssssssssscsssssssscssssssccsssscssssssscscsscc" />
      <path
         style="fill:#abcbe9;stroke-width:0.264583"
         d="m 75.362445,44.1116 c 0.181901,-0.0734 0.479557,-0.0734 0.661458,0 0.181901,0.0734 0.03307,0.133453 -0.330729,0.133453 -0.363802,0 -0.51263,-0.06005 -0.330729,-0.133453 z m 51.731075,-0.0081 c 0.25744,-0.06708 0.61462,-0.06267 0.79375,0.0098 0.17914,0.07248 -0.0315,0.127363 -0.46805,0.121971 -0.43656,-0.0054 -0.58313,-0.06469 -0.3257,-0.131773 z m -14.92159,-6.100503 c -0.32911,-0.419645 -0.31975,-0.429003 0.0999,-0.0999 0.44073,0.345644 0.58089,0.562917 0.36313,0.562917 -0.0549,0 -0.2633,-0.208359 -0.46302,-0.463021 z"
         id="path376"
         sodipodi:nodetypes="ssssssssssssss" />
      <path
         style="fill:#7db3e3;stroke-width:0.264583"
         d="m 69.4526,32.04985 c -0.406744,-1.75359 -0.506301,-3.197339 -0.506301,-7.342188 0,-5.488104 0.0998,-6.188942 1.507003,-10.583333 3.300542,-10.3068499 11.747831,-18.5733042 22.022111,-21.5506728 3.652332,-1.0584042 5.679107,-1.2802714 10.337557,-1.1316311 4.46193,0.1423699 6.69094,0.5565931 10.29497,1.9131454 10.25919,3.8615497 18.40653,13.4204164 20.52115,24.0764505 0.17326,0.873125 0.4245,2.086708 0.55831,2.69685 0.62561,2.852761 -0.12919,12.994992 -1.03448,13.900285 -0.25146,0.251457 -5.60591,-2.277155 -5.59621,-2.642778 0.003,-0.107812 0.17731,-1.148524 0.38765,-2.312691 0.78201,-4.328168 0.2322,-9.44118 -1.51479,-14.086929 C 124.07617,8.7280075 119.33654,3.4008575 113.53896,0.49785163 111.09659,-0.7251078 109.99254,-1.1311527 107.36027,-1.774544 104.7104,-2.4222357 98.810321,-2.4739202 96.148655,-1.8727573 85.889137,0.44445554 78.027665,8.3510541 75.507553,18.886829 c -0.549891,2.29892 -0.648404,9.759243 -0.151074,11.440864 0.276119,0.933635 0.25055,1.01986 -0.450432,1.519004 -0.66801,0.475663 -4.533197,2.385965 -4.827617,2.385965 -0.06574,0 -0.347366,-0.982266 -0.62583,-2.182812 z"
         id="path374" />
      <path
         style="fill:#1a4687;stroke-width:0.264583"
         d="M 45.530673,43.845027 C 56.87128,42.042177 66.390257,39.123355 74.318722,35.017691 83.026369,30.508538 89.820573,24.9222 94.555025,18.378972 97.610671,14.155931 100.40114,7.7904073 101.19353,3.2354413 l 0.33808,-1.9434034 0.32171,1.5875 c 0.99032,4.8868746 3.61178,11.1081131 6.26789,14.8749641 9.40414,13.336783 26.48694,22.429578 48.79905,25.974669 0.92509,0.146984 -4.3761,0.242348 -14.55208,0.261782 -17.55816,0.03353 -18.33144,-0.01902 -22.45356,-1.525979 -5.78532,-2.114987 -8.78694,-4.95631 -11.90888,-11.272938 -2.81441,-5.694399 -4.63495,-11.360809 -5.59116,-17.402381 -0.30482,-1.925981 -0.62604,-3.9185028 -0.71382,-4.4278257 -0.12264,-0.711587 -0.26739,-0.1294966 -0.62508,2.5135417 -1.096003,8.098668 -4.586681,18.11747 -8.130597,23.33612 -2.836175,4.176453 -7.559752,7.103715 -13.412016,8.31161 -2.18409,0.450791 -3.742306,0.489455 -18.524269,0.459636 -8.876771,-0.01791 -15.841927,-0.07988 -15.478125,-0.13771 z"
         id="path366" />
      <path
         style="fill:#142b4e;stroke-width:0.264583"
         d="m 70.136924,73.399797 c -0.509323,-0.1103 -1.223698,-0.324461 -1.5875,-0.475917 -0.870355,-0.362333 -2.276655,-1.855086 -2.629606,-2.791256 -0.505203,-1.340009 -0.394624,-1.50413 1.013422,-1.50413 1.164088,0 1.311135,0.06734 1.46231,0.669666 0.230669,0.919065 1.621933,1.709388 3.011284,1.710595 2.341851,0.002 3.49259,-1.310212 3.49259,-3.982784 v -1.354934 l -0.801965,0.674812 c -1.981251,1.667111 -4.858023,1.556187 -6.87391,-0.265043 -2.272935,-2.053461 -2.416101,-6.243498 -0.295865,-8.659112 1.784811,-2.033457 6.165419,-2.10226 7.554791,-0.118652 0.408914,0.583806 0.408924,0.583801 0.5783,-0.263072 0.160031,-0.800151 0.234191,-0.846892 1.3437,-0.846892 h 1.174321 l -0.08291,6.548437 c -0.07738,6.111804 -0.120893,6.619005 -0.652478,7.606771 -1.2998,2.415217 -3.990764,3.639632 -6.706479,3.051511 z m 3.489965,-9.197485 c 2.717912,-2.717911 -0.199641,-7.36668 -3.608189,-5.749219 -1.183677,0.561692 -1.733859,1.565664 -1.733859,3.163943 0,2.355559 1.289028,3.670017 3.405621,3.472807 0.837782,-0.07806 1.37164,-0.322744 1.936427,-0.887531 z m 25.085036,0.457432 v -8.466666 h 1.190626 c 1.146529,0 1.190629,0.0294 1.190629,0.79375 0,0.90401 0.26213,1.017508 0.70653,0.305914 0.75446,-1.20808 3.9078,-1.809075 5.77576,-1.100799 2.58733,0.981046 3.92651,4.614828 2.945,7.991102 -1.06454,3.661888 -5.50784,5.09253 -8.36075,2.691971 l -0.80196,-0.674812 v 3.463105 3.463102 h -1.32292 -1.322915 z m 8.272455,0.05804 c 0.95546,-0.906462 1.33778,-2.336366 1.01218,-3.785541 -0.37403,-1.664679 -1.26806,-2.41817 -3.04392,-2.56544 -1.38919,-0.115202 -1.51463,-0.07355 -2.37757,0.789379 -1.54154,1.541547 -1.60778,4.014052 -0.14667,5.47516 1.27874,1.278747 3.25961,1.316332 4.55598,0.08644 z m -50.876614,2.990385 c -1.289825,-0.413467 -2.700142,-1.621809 -3.342335,-2.863673 -0.576777,-1.115364 -0.749207,-3.409101 -0.360614,-4.797017 0.182696,-0.652529 0.736077,-1.658284 1.229734,-2.235012 1.2228,-1.428565 2.734559,-1.974123 5.099999,-1.840463 2.314604,0.130786 3.764155,1.033534 4.756796,2.962425 1.146463,2.227795 0.761856,5.549884 -0.84153,7.268808 -1.440269,1.544053 -4.339477,2.210985 -6.54205,1.504932 z m 3.316237,-2.371043 c 1.226632,-0.512521 1.979438,-1.805723 1.980681,-3.402499 0.0018,-2.322549 -1.221581,-3.624881 -3.405155,-3.624881 -2.013011,0 -3.480709,2.116076 -3.052151,4.400486 0.209486,1.116658 1.46995,2.661057 2.303822,2.822787 1.060259,0.205639 1.253493,0.188219 2.172803,-0.195893 z m 23.825015,2.446372 c -1.602927,-0.445622 -3.428701,-2.418924 -3.845464,-4.156188 -0.394208,-1.64324 -0.217459,-3.339106 0.492259,-4.723099 1.037535,-2.023258 2.741097,-2.975715 5.322362,-2.975715 3.750876,0 5.920132,2.180703 5.921872,5.953124 7.94e-4,1.936142 -0.408855,3.101298 -1.521049,4.325229 -1.323539,1.456505 -4.22179,2.173856 -6.36998,1.576649 z m 3.82124,-2.821585 c 0.933514,-0.685141 1.314508,-1.559568 1.319017,-3.027286 0.0072,-2.332355 -1.123559,-3.624881 -3.1711,-3.624881 -2.074315,0 -3.233656,1.366385 -3.214892,3.789023 0.02231,2.877804 2.861273,4.482 5.066975,2.863144 z m 27.448012,2.759244 c -1.22593,-0.437462 -1.70892,-0.826931 -2.19775,-1.772232 -0.6598,-1.275921 -0.51475,-1.553763 0.8112,-1.553763 0.86115,0 1.19062,0.105672 1.19062,0.381873 0,1.135039 2.7444,1.636226 3.70417,0.67646 0.29104,-0.291041 0.52917,-0.635039 0.52917,-0.764439 0,-0.621649 -1.10059,-1.347602 -2.80192,-1.848154 -2.23442,-0.657397 -3.13911,-1.307581 -3.54945,-2.55092 -0.35741,-1.082964 -0.11649,-2.117244 0.54226,-2.910547 0.74665,-0.899159 2.03006,-1.488738 3.58741,-1.488738 2.09953,0 3.68351,1.08639 4.2021,2.882069 0.1622,0.561661 0.0961,0.595313 -1.16882,0.595313 -0.94672,0 -1.34075,-0.104585 -1.34075,-0.355867 0,-0.571394 -0.90696,-1.231633 -1.69187,-1.231633 -1.15136,0 -1.74771,0.452504 -1.74771,1.326126 0,0.953053 0.6405,1.401244 2.64583,1.851401 2.83589,0.636606 3.91686,1.84141 3.62238,4.037361 -0.32124,2.395548 -3.46844,3.749257 -6.33687,2.72569 z m 10.66148,-0.217141 c -1.9122,-0.980527 -2.12616,-1.672375 -2.12616,-6.875039 v -4.435898 h 1.3043 1.30429 l 0.0848,4.074086 c 0.0733,3.521551 0.15128,4.147476 0.57522,4.615211 0.65447,0.722077 1.81376,0.945825 2.95282,0.569902 1.48047,-0.488598 1.7161,-1.249553 1.7161,-5.541893 v -3.717306 h 1.45521 1.45521 v 5.820833 5.820833 h -1.32292 c -1.20952,0 -1.32291,-0.05292 -1.32291,-0.61736 0,-0.918858 -0.22296,-0.983453 -0.97829,-0.283432 -1.33882,1.240774 -3.35084,1.465776 -5.09764,0.570063 z M 47.382756,58.971203 v -8.863542 h 1.322917 1.322917 v 8.863542 8.863541 h -1.322917 -1.322917 z m 45.772919,3.042708 v -5.820833 h 1.322917 1.322917 v 5.820833 5.820833 h -1.322917 -1.322917 z m 43.391665,0 v -5.820833 h 1.32292 c 1.25929,0 1.32292,0.0342 1.32292,0.710959 v 0.710959 l 0.76421,-0.73216 c 1.554,-1.488823 4.40379,-1.370854 5.81891,0.240879 l 0.78345,0.892297 0.42025,-0.641376 c 0.61003,-0.931032 1.88938,-1.497814 3.35526,-1.486459 1.83573,0.01421 3.01245,0.656897 3.66289,2.000534 0.4785,0.988459 0.54086,1.626213 0.54086,5.531651 v 4.414382 h -1.32291 -1.32292 v -4.086288 c 0,-3.928941 -0.0244,-4.114641 -0.63338,-4.822632 -0.88996,-1.034642 -2.50351,-1.038847 -3.53381,-0.0092 -0.72177,0.721312 -0.72832,0.759941 -0.8175,4.822631 l -0.0899,4.095496 h -1.29917 -1.29917 v -4.06536 c 0,-3.672935 -0.0514,-4.130693 -0.53239,-4.742185 -1.11364,-1.415761 -3.17592,-1.105868 -4.03126,0.605766 -0.37303,0.746488 -0.46269,1.630165 -0.46302,4.563759 l -4.1e-4,3.63802 h -1.32292 -1.32292 z M 93.420259,53.018078 c -1.042022,-1.042022 -0.359228,-2.645833 1.126413,-2.645833 1.457346,0 2.110372,1.937324 0.931381,2.763123 -0.791443,0.554347 -1.422104,0.518401 -2.057794,-0.11729 z"
         id="path364"
         sodipodi:nodetypes="ssssscscsssssscsssssssssccssssssccccccssssssssssssssssssssssssscssscssssssssssssssssssssssscccsssscccccsssssccccccccccccccccccccsscsscsssscccsssscccssssccccssss" />
    </g>
  </g>
</svg>
