<?xml version="1.0" encoding="UTF-8" standalone="no"?>
<!-- Created with Inkscape (http://www.inkscape.org/) -->

<svg
   width="87.311203mm"
   height="69.732605mm"
   viewBox="0 0 87.311205 69.732605"
   version="1.1"
   id="svg589"
   inkscape:export-filename="a.svg"
   inkscape:export-xdpi="96"
   inkscape:export-ydpi="96"
   xmlns:inkscape="http://www.inkscape.org/namespaces/inkscape"
   xmlns:sodipodi="http://sodipodi.sourceforge.net/DTD/sodipodi-0.dtd"
   xmlns="http://www.w3.org/2000/svg"
   xmlns:svg="http://www.w3.org/2000/svg">
  <sodipodi:namedview
     id="namedview591"
     pagecolor="#ffffff"
     bordercolor="#000000"
     borderopacity="0.25"
     inkscape:showpageshadow="2"
     inkscape:pageopacity="0.0"
     inkscape:pagecheckerboard="0"
     inkscape:deskcolor="#d1d1d1"
     inkscape:document-units="mm"
     showgrid="false" />
  <defs
     id="defs586" />
  <g
     inkscape:label="Layer 1"
     inkscape:groupmode="layer"
     id="layer1"
     transform="translate(-111.62864,-31.741212)">
    <g
       id="g488"
       transform="translate(-16.805703,-44.4974)">
      <path
         style="fill:#fdfdfd;stroke-width:0.264583"
         d="m 194.1077,132.87409 21.62024,-12.96458 -0.002,-8.86354 -0.002,-8.86354 -21.59243,-12.964587 c -11.87584,-7.130521 -21.7927,-12.964584 -22.03746,-12.964584 -0.24476,0 -10.16791,5.834063 -22.05144,12.964584 l -21.60641,12.964587 0.0111,8.86354 0.0111,8.86354 21.61783,13.01521 c 11.88981,7.15836 21.79643,12.99242 22.01472,12.96458 0.21818,-0.0278 10.12589,-5.88469 22.01701,-13.01521 z"
         id="path496"
         sodipodi:nodetypes="ccccssscccsscc" />
      <path
         style="fill:#a4b3fa;stroke-width:0.264583"
         d="m 154.69424,124.31925 -16.99948,-10.22998 v -2.97686 c 0,-1.63727 0.0504,-2.97686 0.11209,-2.97686 0.0617,0 7.75028,4.58391 17.08583,10.18646 9.33555,5.60255 17.09415,10.18646 17.24135,10.18646 0.14719,0 7.8474,-4.54218 17.11157,-10.09373 9.26417,-5.55156 16.93325,-10.14249 17.04239,-10.20208 0.10914,-0.0596 0.19459,1.23814 0.18989,2.88384 l -0.009,2.99218 -17.12645,10.2526 c -9.41954,5.63893 -17.24406,10.24256 -17.3878,10.23027 -0.14375,-0.0123 -7.91113,-4.62581 -17.26084,-10.2523 z m 4.36562,-13.33884 c -7.09414,-4.25562 -12.89843,-7.81172 -12.89843,-7.90243 0,-0.14528 5.71908,-3.673679 5.95456,-3.673679 0.0507,0 4.56579,2.685499 10.03343,5.967789 l 9.94117,5.96778 9.95762,-5.97765 9.95762,-5.977659 3.00696,1.789319 c 1.65384,0.98412 3.00315,1.85177 2.99848,1.9281 -0.008,0.12644 -25.40072,15.39798 -25.85648,15.55027 -0.10807,0.0361 -6.00079,-3.41621 -13.09493,-7.67184 z m 6.98427,-13.150319 c -5.52075,-3.327389 -5.63539,-3.414141 -5.02708,-3.804055 1.82824,-1.171868 10.86644,-6.527985 11.01567,-6.527985 0.293,0 11.43496,6.727947 11.43496,6.904871 0,0.23536 -11.09185,6.855648 -11.46471,6.842838 -0.17009,-0.006 -2.85157,-1.542898 -5.95884,-3.415669 z"
         id="path494" />
      <path
         style="fill:#6866eb;stroke-width:0.264583"
         d="M 150.32524,132.82949 128.43434,119.688 v -8.64779 -8.6478 l 21.76198,-13.042561 c 11.96909,-7.17341 21.82151,-13.073275 21.89427,-13.110811 0.0728,-0.03754 0.098,2.408226 0.0561,5.435025 l -0.0762,5.503272 -5.93582,3.533795 c -3.2647,1.943589 -5.93908,3.594378 -5.94307,3.668424 -0.004,0.07404 2.67166,1.739868 5.94588,3.70183 l 5.95312,3.567206 v 4.708 c 0,4.53736 -0.0181,4.69828 -0.50087,4.43994 -0.27548,-0.14744 -4.57446,-2.71409 -9.55329,-5.70369 -4.97883,-2.98959 -9.25674,-5.544971 -9.50647,-5.678622 -0.62446,-0.334198 -7.08829,3.480242 -6.57491,3.879982 0.18627,0.14503 6.1378,3.73772 13.22562,7.98375 l 12.88695,7.72005 0.0776,4.75555 c 0.0427,2.61555 0.054,4.75541 0.0251,4.75523 -0.0289,-1.7e-4 -7.52987,-4.50476 -16.66875,-10.01019 -9.1389,-5.50544 -16.88407,-10.15306 -17.21149,-10.32806 l -0.59531,-0.31818 0.009,3.25046 0.009,3.25045 17.17934,10.28433 17.17933,10.28432 0.0762,5.52478 c 0.0419,3.03863 0.0747,5.52467 0.0728,5.52453 -0.002,-1.4e-4 -9.85429,-5.91392 -21.89428,-13.14173 z"
         id="path492" />
      <path
         style="fill:#4e45e4;stroke-width:0.264583"
         d="m 172.09059,140.34221 v -5.40826 l 17.18937,-10.29035 17.18937,-10.29034 0.009,-3.25676 c 0.005,-1.79122 -0.0807,-3.20801 -0.18989,-3.14842 -0.10914,0.0596 -7.77822,4.65052 -17.04239,10.20207 -9.26417,5.55156 -16.91393,10.09374 -16.99948,10.09374 -0.0855,0 -0.15553,-2.07723 -0.15553,-4.61605 v -4.61605 l 12.89844,-7.72695 c 7.09414,-4.24982 13.05134,-7.84602 13.23821,-7.99156 0.2512,-0.19564 -0.51692,-0.77518 -2.94652,-2.22314 l -3.2863,-1.958513 -9.75348,5.870883 c -5.36441,3.22899 -9.84277,5.92124 -9.95191,5.98279 -0.10914,0.0615 -0.19844,-2.00954 -0.19844,-4.60241 v -4.7143 l 5.95313,-3.567206 c 3.27422,-1.961962 5.94986,-3.627786 5.94588,-3.70183 -0.004,-0.07405 -2.6829,-1.727541 -5.95313,-3.674438 l -5.94588,-3.539809 v -5.389878 c 0,-2.964433 0.0759,-5.389878 0.16871,-5.389878 0.0928,0 9.91506,5.863828 21.82726,13.030729 l 21.65854,13.03073 -0.001,8.59896 -0.001,8.59896 -21.57436,12.96458 c -11.86591,7.13052 -21.68758,13.00427 -21.82594,13.05278 -0.1537,0.0539 -0.25156,-2.01564 -0.25156,-5.32008 z"
         id="path490" />
    </g>
  </g>
</svg>
