<?xml version="1.0" encoding="UTF-8" standalone="no"?>
<!-- Created with Inkscape (http://www.inkscape.org/) -->

<svg
   width="68.268394mm"
   height="68.329178mm"
   viewBox="0 0 68.268396 68.329178"
   version="1.1"
   id="svg589"
   inkscape:export-filename="b.svg"
   inkscape:export-xdpi="96"
   inkscape:export-ydpi="96"
   xmlns:inkscape="http://www.inkscape.org/namespaces/inkscape"
   xmlns:sodipodi="http://sodipodi.sourceforge.net/DTD/sodipodi-0.dtd"
   xmlns="http://www.w3.org/2000/svg"
   xmlns:svg="http://www.w3.org/2000/svg">
  <sodipodi:namedview
     id="namedview591"
     pagecolor="#ffffff"
     bordercolor="#000000"
     borderopacity="0.25"
     inkscape:showpageshadow="2"
     inkscape:pageopacity="0.0"
     inkscape:pagecheckerboard="0"
     inkscape:deskcolor="#d1d1d1"
     inkscape:document-units="mm"
     showgrid="false" />
  <defs
     id="defs586" />
  <g
     inkscape:label="Layer 1"
     inkscape:groupmode="layer"
     id="layer1"
     transform="translate(-168.34359,-34.571957)">
    <g
       id="g510"
       transform="translate(48.661223,-86.879782)">
      <path
         style="fill:#fdfdfd;stroke-width:0.264583"
         d="m 152.32912,188.81517 c 10.68589,-2.74027 18.61722,-12.13606 19.39409,-22.97507 l 0.16594,-2.3151 h -13.0042 -13.00421 v -12.94897 c 0,-7.87224 -0.0983,-13.00973 -0.25078,-13.10396 -0.54489,-0.33676 -5.32309,0.47932 -8.02996,1.37146 -4.98237,1.64211 -9.59442,4.94545 -12.7876,9.15901 -1.58407,2.09026 -3.64565,6.37897 -4.35663,9.06313 -0.77546,2.92756 -0.95434,7.71577 -0.40589,10.86455 1.89681,10.88999 10.19559,19.33281 21.02846,21.39343 2.98386,0.56759 7.92552,0.34425 11.25078,-0.50848 z m 22.25892,-29.07577 c 5.9656,-2.09375 10.45982,-6.59622 12.46339,-12.48628 0.95859,-2.81803 1.18659,-7.54082 0.51071,-10.57877 -0.90997,-4.09018 -3.80962,-8.65117 -7.07147,-11.12307 -11.39368,-8.63439 -27.69236,-2.97171 -31.17189,10.83011 -0.4854,1.92537 -0.52762,2.97971 -0.52762,13.17568 v 11.08283 l 11.84011,-0.0788 11.8401,-0.0788 z"
         id="path526"
         sodipodi:nodetypes="sscccsssssssssssssscccs" />
      <path
         style="fill:#a891da;stroke-width:0.264583"
         d="M 145.88074,176.65296 V 163.525 h 13.00421 13.0042 l -0.16594,2.3151 c -0.89409,12.4744 -10.99919,22.56182 -23.79194,23.75032 l -2.05053,0.1905 z"
         id="path522"
         sodipodi:nodetypes="ccccsscc" />
      <path
         style="fill:#fe7816;stroke-width:0.264583"
         d="m 148.79116,150.76953 c 0,-5.43416 0.12406,-10.8697 0.27569,-12.07898 1.01759,-8.11544 7.10435,-14.80615 15.21442,-16.72405 1.96825,-0.46546 6.5683,-0.404 8.55496,0.1143 5.29019,1.38015 9.63194,4.5421 12.22099,8.90012 6.60771,11.12243 1.08617,25.10684 -11.39955,28.87167 -1.89667,0.5719 -2.46194,0.60126 -13.42328,0.69714 l -11.44323,0.10009 z"
         id="path516" />
      <path
         style="fill:#60449b;stroke-width:0.264583"
         d="m 142.72113,189.42196 c -5.89176,-0.68264 -11.03784,-3.22861 -15.3742,-7.60621 -4.48985,-4.53257 -6.83156,-9.67707 -7.51277,-16.50481 l -0.15179,-1.52136 h 12.9669 12.96689 v 12.96459 c 0,12.1839 -0.0279,12.96251 -0.46302,12.93025 -0.25466,-0.0189 -1.34906,-0.13698 -2.43201,-0.26246 z"
         id="path514"
         sodipodi:nodetypes="ssscccsss" />
      <path
         style="fill:#432680;stroke-width:0.264583"
         d="m 119.83416,162.00364 c 0.72392,-7.25576 3.21735,-12.49556 8.22308,-17.28029 2.30076,-2.19918 3.75763,-3.18848 6.79615,-4.61498 2.69656,-1.26596 5.93667,-2.15046 8.84454,-2.41441 l 1.91823,-0.17412 v 11.27771 1.72487 13.00258 h -12.96689 -12.9669 z"
         id="path512"
         sodipodi:nodetypes="ssssccccccs" />
    </g>
  </g>
</svg>
