<?xml version="1.0" encoding="UTF-8" standalone="no"?>
<!-- Created with Inkscape (http://www.inkscape.org/) -->

<svg
   width="131.9489mm"
   height="53.963612mm"
   viewBox="0 0 131.9489 53.963612"
   version="1.1"
   id="svg589"
   inkscape:export-filename="c.svg"
   inkscape:export-xdpi="96"
   inkscape:export-ydpi="96"
   xmlns:inkscape="http://www.inkscape.org/namespaces/inkscape"
   xmlns:sodipodi="http://sodipodi.sourceforge.net/DTD/sodipodi-0.dtd"
   xmlns="http://www.w3.org/2000/svg"
   xmlns:svg="http://www.w3.org/2000/svg">
  <sodipodi:namedview
     id="namedview591"
     pagecolor="#ffffff"
     bordercolor="#000000"
     borderopacity="0.25"
     inkscape:showpageshadow="2"
     inkscape:pageopacity="0.0"
     inkscape:pagecheckerboard="0"
     inkscape:deskcolor="#d1d1d1"
     inkscape:document-units="mm"
     showgrid="false" />
  <defs
     id="defs586" />
  <g
     inkscape:label="Layer 1"
     inkscape:groupmode="layer"
     id="layer1"
     transform="translate(-128.27237,-70.751441)">
    <g
       id="g540"
       transform="translate(165.6755,-85.719465)">
      <path
         style="fill:#fdfdfd;stroke-width:0.264583"
         d="M 72.601592,210.02952 C 84.4121,207.5931 93.008076,198.23152 94.384063,186.307 95.40605,177.45028 91.520943,168.06419 84.507,162.44484 81.962907,160.4066 77.491121,158.10063 74.376374,157.22078 l -2.116666,-0.59792 -42.800075,-0.0785 c -41.265125,-0.0757 -42.888839,-0.0604 -45.275134,0.42713 -5.302814,1.0833 -9.730381,3.48802 -13.67463,7.42704 -5.294619,5.2876 -7.913001,11.59587 -7.913001,19.06419 0,7.43761 2.634721,13.78255 7.916357,19.06419 2.828215,2.82822 5.401989,4.55913 8.89932,5.98498 4.957151,2.02101 1.839555,1.89888 49.00363,1.91971 37.540549,0.0166 42.368901,-0.0274 44.185417,-0.40209 z m -86.248399,-2.5068 c -3.654436,-0.5447 -7.638693,-2.06054 -10.447671,-3.9749 -1.847749,-1.25927 -4.726457,-4.089 -6.074633,-5.97129 -1.597922,-2.23097 -3.151236,-5.64509 -3.848031,-8.45781 -0.850043,-3.43132 -0.801866,-8.28271 0.116782,-11.75988 1.470484,-5.56593 5.144604,-10.80448 9.805882,-13.9812 1.979837,-1.34929 5.431547,-2.86759 8.015899,-3.52595 l 2.348703,-0.59834 h 42.333334 c 39.293866,0 42.46132,0.0329 44.115913,0.45844 9.041932,2.32535 15.431611,8.34371 18.110332,17.05788 0.654598,2.12948 0.715449,2.69874 0.715449,6.69306 0,3.99432 -0.06085,4.56358 -0.715449,6.69305 -2.628828,8.55187 -8.715671,14.41311 -17.582218,16.93055 l -2.046111,0.58094 -41.671875,0.0398 c -22.9195309,0.0219 -42.348869,-0.061 -43.176306,-0.18439 z m 86.435681,-2.82817 C 83.111876,201.8111 89.78616,192.76996 89.243746,182.4044 88.736423,172.70943 82.165853,164.71544 72.656583,162.22387 L 70.407624,161.6346 H 28.735749 c -39.336083,0 -41.786661,0.0269 -43.719739,0.48048 -1.126326,0.26426 -2.793201,0.7801 -3.704167,1.14629 -3.730114,1.49946 -5.87085,1.41594 36.291631,1.41594 h 38.722785 l -0.974712,0.66146 -0.974715,0.66146 H 15.303721 -23.76939 l -2.14276,2.18281 c -1.713719,1.74575 -4.089601,5.02036 -4.089601,5.63657 0,0.065 3.155157,0.11812 7.011459,0.11812 h 7.011458 v 0.66146 0.66146 h -7.369791 -7.36979 l -0.573182,1.93076 c -0.512145,1.72517 -1.084,5.3991 -1.089396,6.99892 l -0.002,0.59532 h 8.202084 8.202083 v 0.66145 0.66146 h -8.069792 c -4.438385,0 -8.069791,0.0746 -8.069791,0.16569 0,1.04963 1.322751,5.21608 2.215372,6.97806 l 1.139324,2.24896 6.392443,0.0709 6.392444,0.0708 v 0.65675 0.65676 h -5.688542 c -3.128698,0 -5.688541,0.10392 -5.688541,0.23094 0,0.12703 0.878228,1.06518 1.951619,2.0848 3.433072,3.26108 7.583342,5.24849 12.221366,5.85235 1.034029,0.13463 19.7264791,0.2219 42.844723,0.20002 l 41.010417,-0.0388 z m -8.250261,-3.20964 c -1.355992,-0.98228 -2.495092,-2.37404 -3.525822,-4.30789 l -0.822655,-1.54346 h 2.925932 2.925931 v 3.30729 c 0,1.81901 -0.101197,3.30729 -0.224885,3.30729 -0.123687,0 -0.699013,-0.34345 -1.278501,-0.76323 z m 4.413803,-2.54406 v -3.30729 h 2.213012 2.213012 l 0.432821,-1.13332 c 0.238051,-0.62333 0.432822,-1.21864 0.432822,-1.32292 0,-0.10427 -1.190625,-0.18959 -2.645834,-0.18959 h -2.645833 v -4.10104 -4.10104 h 3.439583 3.439584 v -1.32292 -1.32292 h -3.439584 -3.439583 v -4.10104 -4.10104 h 2.645833 c 1.455209,0 2.645834,-0.0853 2.645834,-0.18959 0,-0.10428 -0.194771,-0.69959 -0.432822,-1.32292 L 73.37844,171.2919 h -2.213012 -2.213012 v -3.3073 c 0,-1.81901 0.101198,-3.30729 0.224885,-3.30729 0.52632,0 2.468518,1.67321 3.44787,2.97036 5.054259,6.69431 5.834253,20.66945 1.621756,29.05695 -0.898263,1.78853 -2.556163,3.88569 -3.762862,4.75982 -0.595032,0.43104 -1.183076,0.7837 -1.306764,0.7837 -0.123687,0 -0.224885,-1.48828 -0.224885,-3.30729 z m -81.75625,1.98438 c 0,-0.52599 0.17639,-0.52917 29.36875,-0.52917 29.19236,0 29.36875,0.003 29.36875,0.52917 0,0.52599 -0.17639,0.52916 -29.36875,0.52916 -29.19236,0 -29.36875,-0.003 -29.36875,-0.52916 z m 71.27888,-0.68897 c -0.712671,-0.37893 -2.037535,-1.2719 -2.944143,-1.98437 l -1.648378,-1.29541 h -2.783803 -2.783806 v -0.66146 -0.66146 l 4.431771,0.004 4.431771,0.004 1.363728,2.64168 c 0.750049,1.45292 1.333328,2.64168 1.296178,2.64168 -0.03715,0 -0.650647,-0.31004 -1.363318,-0.68897 z m 17.977183,-1.95271 1.363729,-2.64168 2.050521,-0.004 c 1.127786,-0.002 2.05052,0.10538 2.05052,0.23926 0,0.6413 -5.823373,5.04825 -6.670783,5.04825 -0.08674,0 0.455964,-1.18876 1.206013,-2.64168 z m -87.655635,-2.1099 c -0.841526,-0.21237 -1.600428,-0.86884 -1.600428,-1.38441 0,-0.31746 1.965291,-0.25955 2.292387,0.0675 0.346393,0.34639 2.6024047,0.217 2.6024047,-0.14926 0,-0.14552 -0.9153843,-0.39273 -2.0341855,-0.54936 -2.8912922,-0.40476 -3.6667912,-1.29163 -2.1634662,-2.47415 0.568722,-0.44735 1.073896,-0.54837 2.7424433,-0.54837 1.6685472,0 2.1737215,0.10102 2.7424433,0.54837 1.0548462,0.82975 0.8808667,1.11703 -0.5596308,0.92409 -2.5158753,-0.33697 -3.3734378,-0.30773 -3.3734378,0.11504 0,0.30067 0.466739,0.43856 1.9253468,0.56883 1.0589419,0.0946 2.1007387,0.31751 2.3151042,0.49542 0.5905209,0.49008 0.4742762,1.51401 -0.2238111,1.97141 -0.7498186,0.49131 -3.420991,0.72884 -4.6651699,0.41485 z m 7.924572,-1.73071 v -1.7198 h -1.190625 c -1.1465269,0 -1.190625,-0.0294 -1.190625,-0.79375 v -0.79375 h 3.3072917 3.30729163 v 0.79375 c 0,0.76436 -0.0440981,0.79375 -1.190625,0.79375 H -1.4267507 v 1.7198 1.71979 H -2.3527923 -3.278834 Z m 3.43958333,1.55332 c 0,-0.0916 0.55980013,-1.2282 1.24400207,-2.52586 l 1.2440047,-2.35939 1.1964061,0.0785 1.1964088,0.0785 1.2827132,2.44739 1.2827133,2.4474 h -1.048983 c -0.6883532,0 -1.1013414,-0.13644 -1.2012798,-0.39688 -0.109474,-0.28528 -0.5558366,-0.39687 -1.5875,-0.39687 -1.0316607,0 -1.478026,0.11159 -1.5875,0.39687 -0.1475978,0.38464 -2.02098537,0.59822 -2.02098537,0.23041 z M 4.3542655,193.51641 C 3.962751,192.3933 3.6958684,192.333 3.3615224,193.29211 c -0.1596946,0.4581 -0.2903564,0.87468 -0.2903564,0.92572 0,0.0511 0.3509936,0.0928 0.7799864,0.0928 0.7518585,0 0.770001,-0.0286 0.5031131,-0.79423 z m 3.7439838,0.13278 v -2.51355 l 1.2567709,-0.005 c 1.1848918,-0.005 1.3281688,0.0745 2.5051198,1.38906 l 1.248349,1.39431 0.0084,-1.38906 0.0084,-1.38908 h 0.926041 0.926042 v 2.51355 2.51354 l -1.124479,-0.007 c -1.034378,-0.007 -1.21988,-0.12202 -2.315104,-1.43939 -0.654844,-0.78766 -1.279922,-1.43923 -1.389063,-1.44793 -0.10914,-0.009 -0.1984373,0.63903 -0.1984373,1.43939 v 1.45521 H 9.024291 8.0982493 Z m 8.2020837,0 v -2.51355 h 2.501093 c 3.293242,0 3.867557,0.28149 4.483745,2.19761 0.20996,0.65289 -0.471233,2.19413 -1.124212,2.5436 -0.293793,0.15723 -1.732624,0.28588 -3.197399,0.28588 h -2.663227 z m 4.875892,0.77485 c 0.491884,-0.49189 0.496104,-0.52725 0.141883,-1.18912 -0.219496,-0.41013 -0.561065,-0.51178 -1.719792,-0.51178 h -1.4459 v 1.05834 1.05833 h 1.304017 c 0.832695,0 1.454296,-0.15028 1.719792,-0.41577 z m 3.319619,-0.70871 1.312674,-2.44739 h 1.214181 1.214181 l 1.327105,2.44739 1.327108,2.4474 h -1.085977 c -0.721236,0 -1.137124,-0.1333 -1.238269,-0.39688 -0.108796,-0.28351 -0.55177,-0.39687 -1.550889,-0.39687 -0.99912,0 -1.442093,0.11336 -1.55089,0.39687 -0.100462,0.26181 -0.514681,0.39688 -1.217097,0.39688 h -1.064805 z m 2.992305,-0.33847 c -0.443593,-0.93022 -0.446564,-0.93148 -0.780095,-0.33073 -0.530355,0.95528 -0.423751,1.26451 0.435914,1.26451 h 0.789469 z m 3.893434,0.27233 v -2.51355 h 2.530935 c 2.400493,0 3.441666,0.24131 3.88116,0.89951 0.387609,0.5805 0.202676,1.92873 -0.330785,2.4115 l -0.533273,0.48261 0.579395,0.61673 0.579393,0.61674 h -1.074026 c -0.853662,0 -1.162947,-0.13571 -1.507427,-0.66146 -0.324749,-0.49563 -0.664038,-0.66146 -1.353346,-0.66146 -0.804884,0 -0.919943,0.0827 -0.919943,0.66146 0,0.57956 -0.114652,0.66146 -0.926042,0.66146 h -0.926041 z m 4.713277,-0.59532 c -0.06803,-0.35785 -0.402961,-0.48118 -1.474611,-0.54299 -1.247941,-0.072 -1.386583,-0.0257 -1.386583,0.46302 0,0.48265 0.163872,0.54299 1.474608,0.54299 1.261533,0 1.461891,-0.0669 1.386586,-0.46302 z m 2.959639,0.59532 v -2.51355 h 2.364026 c 2.830928,0 3.556622,0.23682 4.131336,1.3482 0.527172,1.01943 0.348811,2.20977 -0.460136,3.07086 -0.524386,0.55818 -0.795195,0.60803 -3.30322,0.60803 h -2.732006 z m 4.515311,0.91673 c 0.576781,-0.30868 0.671015,-1.04853 0.194273,-1.52528 -0.174625,-0.17462 -0.889,-0.3175 -1.5875,-0.3175 h -1.27 v 1.05834 1.05833 h 1.075727 c 0.59165,0 1.306025,-0.12325 1.5875,-0.27389 z m 6.716625,-2.92648 c -0.745898,-1.47196 -1.706936,-4.90771 -1.706936,-6.10237 v -0.75142 h 3.307292 3.307292 l 0.0016,0.85989 c 0.0016,0.81394 0.614654,5.04321 0.959012,6.61458 l 0.159448,0.72761 h -2.67222 -2.67222 l -0.683229,-1.34829 z m 8.483481,-0.56572 c -0.239432,-1.0527 -0.504785,-2.89817 -0.589674,-4.10104 l -0.15434,-2.18703 h 4.008049 4.008048 v 4.10104 4.10104 h -3.418377 -3.418374 z m 19.972083,1.66672 c 0,-0.13601 0.171112,-1.06071 0.380246,-2.05491 0.209135,-0.99419 0.463683,-2.72838 0.565661,-3.85375 l 0.185415,-2.04613 h 3.270797 3.270798 v 0.75142 c 0,1.19466 -0.961038,4.63041 -1.706936,6.10237 l -0.683228,1.34829 h -2.641378 c -1.461352,0 -2.641375,-0.11048 -2.641375,-0.24729 z m -55.218025,-4.52689 c 0.989824,-0.13944 2.150684,-0.43504 2.579687,-0.65689 0.699037,-0.36148 0.780005,-0.36145 0.780005,2.7e-4 0,0.3129 0.327192,0.40367 1.455208,0.40367 h 1.455209 v -3.05062 -3.05061 l -3.373438,0.074 -3.373437,0.074 -0.08136,1.12448 -0.08136,1.12448 h 1.926093 1.926092 l -0.595312,0.59531 c -0.501775,0.50178 -0.880796,0.59532 -2.412268,0.59532 -2.001051,0 -2.962637,-0.51898 -2.894814,-1.56237 0.03352,-0.51562 0.04406,-0.51255 0.151077,0.0439 0.175708,0.91368 1.495907,1.46569 3.172773,1.32663 2.234792,-0.18528 2.432838,-0.73419 0.264911,-0.73419 h -1.772708 v -1.45521 -1.4552 h 1.5875 c 1.639107,0 2.141365,-0.39693 0.859896,-0.67957 -1.187779,-0.26197 -1.297004,-0.33584 -0.529167,-0.35788 0.406905,-0.0117 0.970047,0.22155 1.277662,0.52917 0.471898,0.4719 0.810355,0.53769 2.381848,0.46302 l 1.831787,-0.087 -5.29e-4,3.37344 -6.64e-4,3.37344 h -1.697744 c -1.03859,0 -1.736894,-0.11746 -1.798585,-0.30253 -0.07508,-0.22525 -0.250039,-0.22267 -0.684969,0.0101 -0.32127,0.17194 -1.387141,0.3625 -2.368603,0.42346 l -1.784474,0.11084 1.799683,-0.25354 z m -35.798641,-5.27999 v -5.29166 h 2.4757509 2.4757539 l 1.1292205,2.57968 c 0.6210697,1.41883 1.1711305,2.62657 1.2223538,2.68388 0.051223,0.0573 0.6496738,-1.10356 1.3298858,-2.57969 l 1.2367498,-2.68387 H 0.06852352 2.5419993 v 5.29166 5.29167 H 0.56971315 -1.402573 l -0.079362,-1.78594 -0.079362,-1.78594 -0.8477038,1.78594 -0.8477012,1.78594 h -1.6930476 -1.6930449 l -0.8099584,-1.78594 -0.8099584,-1.78594 -0.02159,1.78594 -0.021616,1.78594 h -1.9843747 -1.984375 z m 3.7600119,2.71198 0.076446,-2.3151 0.9474412,2.24896 0.9474411,2.24895 1.5911407,0.0777 1.5911407,0.0777 1.0332931,-2.45895 1.0332932,-2.45896 0.076076,2.4474 0.076073,2.44739 H 0.56755415 2.277416 v -5.02708 -5.02708 H 0.01634504 -2.2447286 l -1.071409,2.3151 c -0.5892747,1.27331 -1.1873045,2.61223 -1.3289518,2.97538 -0.2350294,0.60255 -0.3668951,0.40596 -1.5084531,-2.24896 l -1.2509103,-2.90923 -2.3028169,-0.0764 -2.3028143,-0.0764 v 5.03738 5.03738 h 1.709491 1.7094892 z m 12.9087378,-2.71198 v -5.29166 h 5.55625 5.5562503 v 1.5875 1.5875 l -3.638021,-0.0578 -3.638021,-0.0578 3.505729,-0.0822 3.505729,-0.0822 v -1.31524 -1.31523 H 9.9503327 4.658666 v 5.02171 5.02172 l 5.490104,0.0772 5.490104,0.0772 -5.622395,0.0605 -5.6223963,0.0605 z m 16.3545573,5.11093 c 0.190995,-0.0764 0.419201,-0.067 0.507119,0.0209 0.08792,0.0879 -0.06835,0.15046 -0.347266,0.13897 -0.308226,-0.0127 -0.370919,-0.0754 -0.159853,-0.15985 z m 11.105928,-2.26666 c 0.721823,-1.34607 1.992781,-3.72732 2.824353,-5.29166 l 1.511948,-2.84427 h 2.294861 2.294861 l 2.576539,5.16112 c 1.417095,2.83862 2.576536,5.21987 2.576536,5.29167 0,0.0718 -1.002797,0.13054 -2.22844,0.13054 h -2.22844 l -0.30562,-0.92604 -0.30562,-0.92604 h -2.497304 -2.497305 l -0.441597,0.92604 -0.441598,0.92604 h -2.222791 -2.222788 z m 3.416757,1.25677 0.441598,-0.92604 h 2.601111 2.601111 l 0.441597,0.92604 0.441598,0.92604 h 1.930524 1.930524 l -2.57484,-5.02867 -2.57484,-5.02867 -2.113976,0.0677 -2.113976,0.0677 -2.5645,4.7625 c -1.410476,2.61938 -2.572547,4.8518 -2.582379,4.96094 -0.0098,0.10914 0.817486,0.19843 1.838487,0.19843 h 1.856364 z m 2.376319,-4.74284 0.704059,-1.43555 0.615981,1.32953 c 0.338791,0.73124 0.615982,1.37724 0.615982,1.43555 0,0.0583 -0.594019,0.10602 -1.320041,0.10602 h -1.320043 z m 1.247708,0.31107 c -0.240524,-0.47294 -0.472926,-0.90072 -0.51645,-0.95063 -0.08363,-0.0959 -0.911903,1.41649 -0.911903,1.6651 0,0.08 0.419778,0.14543 0.932837,0.14543 h 0.932836 z m -19.976205,4.76037 c -1.287738,-0.85577 -2.098673,-2.60227 -2.052085,-4.41955 l 0.03757,-1.4653 0.178739,1.74498 c 0.217792,2.12623 0.893403,3.35527 2.274419,4.1375 0.573974,0.32511 0.912368,0.59307 0.751986,0.59546 -0.16038,0.002 -0.696161,-0.2645 -1.190625,-0.59309 z m -7.116731,-2.04839 -3.571875,-0.15582 3.638021,-0.0544 c 2.285211,-0.0342 3.638021,0.044 3.638021,0.2102 0,0.14552 -0.02977,0.24011 -0.06615,0.2102 -0.03638,-0.0299 -1.67349,-0.1245 -3.638021,-0.2102 z m -1.785937,-0.98995 c 0.982265,-0.0509 2.589609,-0.0509 3.571874,0 0.982266,0.0509 0.178594,0.0926 -1.785937,0.0926 -1.9645312,0 -2.7682031,-0.0417 -1.785937,-0.0926 z m 10.798542,-2.24089 c -0.02633,-0.7109 1.04243,-1.53497 1.951347,-1.50458 l 0.810006,0.0271 -0.816845,0.19528 c -1.091398,0.26091 -1.425644,0.49051 -1.698466,1.16669 -0.176668,0.43786 -0.233119,0.46436 -0.246042,0.11552 z m 27.859604,-1.37342 c 0.148513,-1.26362 0.798735,-3.65608 1.355333,-4.98688 0.163611,-0.39119 0.0456,-0.46302 -0.760693,-0.46302 -0.841584,0 -0.954349,-0.0782 -0.954349,-0.66146 v -0.66146 h 3.999595 3.999593 l -0.159449,0.7276 c -0.344358,1.57138 -0.957535,5.80065 -0.959011,6.61459 l -0.0016,0.85989 h -3.34372 -3.343719 z m 9.505617,-0.75777 c 0.08489,-1.20287 0.350242,-3.04834 0.589674,-4.10104 l 0.435332,-1.91401 h 3.418374 3.418377 v 4.10104 4.10104 h -4.008048 -4.008049 z m 21.507664,0.1409 c -0.101978,-1.12537 -0.356526,-2.85956 -0.565661,-3.85376 -0.209134,-0.99419 -0.380246,-1.9189 -0.380246,-2.05491 0,-0.13681 1.180023,-0.24728 2.641375,-0.24728 h 2.641378 l 0.683228,1.34829 c 0.745898,1.47195 1.706936,4.90771 1.706936,6.10236 v 0.75143 h -3.270798 -3.270797 z m -68.017782,1.51697 -3.439583,-0.15655 3.505729,-0.054 c 2.196777,-0.0339 3.505729,0.0448 3.505729,0.21057 0,0.14552 -0.02976,0.24027 -0.06615,0.21056 -0.03638,-0.0297 -1.613959,-0.12446 -3.50573,-0.21056 z m 5.428311,-0.34387 c -0.01095,-0.53306 0.868574,-1.80464 1.649016,-2.38404 0.960329,-0.71295 2.372169,-1.25006 3.214759,-1.22299 0.305707,0.01 0.01283,0.16429 -0.650817,0.34325 -1.796106,0.48434 -2.956137,1.26414 -3.617497,2.43177 -0.32511,0.57397 -0.593066,0.94837 -0.595461,0.83201 z m 12.451953,-0.48035 c -0.03529,-0.72186 -1.114285,-1.86283 -2.249051,-2.37821 -0.593521,-0.26957 -0.888378,-0.49273 -0.655235,-0.49593 1.035129,-0.0142 3.357967,2.21443 3.067767,2.94333 -0.104587,0.26269 -0.148161,0.24425 -0.163481,-0.0692 z m -4.447624,-3.0633 c 0.257431,-0.0671 0.614619,-0.0627 0.79375,0.01 0.17913,0.0725 -0.03149,0.12736 -0.468056,0.12197 -0.436563,-0.005 -0.583126,-0.0647 -0.325694,-0.13177 z m -1.708291,-0.26197 c 0.190995,-0.0764 0.419201,-0.067 0.507119,0.0209 0.08792,0.0879 -0.06835,0.15045 -0.347265,0.13897 -0.308227,-0.0127 -0.37092,-0.0754 -0.159854,-0.15985 z m 3.621485,-3.03068 c -0.291042,-0.17338 -0.616641,-0.44447 -0.723554,-0.60243 -0.358304,-0.52938 -0.207216,-1.65611 0.281366,-2.09827 0.626584,-0.56705 3.277931,-0.60919 3.734258,-0.0593 0.456134,0.54961 0.427654,1.96826 -0.04908,2.445 -0.526987,0.52698 -2.556282,0.72413 -3.242987,0.31505 z m 2.471261,-1.38709 c 0.109609,-0.57794 -0.364792,-0.94793 -1.222793,-0.95369 -0.656884,-0.004 -1.000927,0.54807 -0.749427,1.20347 0.23423,0.6104 1.847842,0.40603 1.97222,-0.24978 z m -42.291053,-0.16399 c 0,-1.41111 0.0588,-1.5875 0.529167,-1.5875 0.470371,0 0.529166,0.17639 0.529166,1.5875 0,1.41111 -0.05879,1.5875 -0.529166,1.5875 -0.470371,0 -0.529167,-0.17639 -0.529167,-1.5875 z m 2.116667,0 v -1.5875 h 0.9181197 c 0.7133352,0 1.0490174,0.17704 1.5049659,0.79375 0.3227652,0.43656 0.6835166,0.79375 0.8016716,0.79375 0.118155,0 0.2148258,-0.35719 0.2148258,-0.79375 0,-0.61736 0.1175914,-0.79375 0.5291667,-0.79375 0.4703709,0 0.5291666,0.17639 0.5291666,1.5875 0,1.57296 -0.00699,1.5875 -0.7623466,1.5875 -0.5603266,0 -0.9495234,-0.2454 -1.468673,-0.92605 -0.3884797,-0.50932 -0.8193299,-0.92604 -0.957445,-0.92604 -0.1381152,0 -0.2511187,0.41672 -0.2511187,0.92604 0,0.74966 -0.100793,0.92605 -0.529167,0.92605 -0.470371,0 -0.529166,-0.17639 -0.529166,-1.5875 z m 6.8791663,0.39687 c 0,-1.14653 -0.029398,-1.19062 -0.79375,-1.19062 -0.5291666,0 -0.79375,-0.1323 -0.79375,-0.39688 0,-0.32165 0.4262729,-0.39687 2.2489584,-0.39687 1.8226854,0 2.2489583,0.0752 2.2489583,0.39687 0,0.26458 -0.2645833,0.39688 -0.79375,0.39688 -0.7643521,0 -0.79375,0.0441 -0.79375,1.19062 0,1.09361 -0.053896,1.19063 -0.6614583,1.19063 -0.6075627,0 -0.6614584,-0.097 -0.6614584,-1.19063 z m 3.43958337,-0.39687 v -1.5875 H 1.6159577 c 1.5875,0 1.984375,0.0794 1.984375,0.39687 0,0.29986 -0.3233791,0.39688 -1.3229167,0.39688 -0.7276042,0 -1.32291667,0.11906 -1.32291667,0.26458 0,0.14552 0.59531247,0.26458 1.32291667,0.26458 0.7276042,0 1.3229167,0.11906 1.3229167,0.26459 0,0.14552 -0.5953125,0.26458 -1.3229167,0.26458 -0.9995376,0 -1.32291667,0.097 -1.32291667,0.39687 0,0.29986 0.32337907,0.39688 1.32291667,0.39688 0.7276042,0 1.3229167,0.11906 1.3229167,0.26458 0,0.15287 -0.8378481,0.26459 -1.984375,0.26459 H -0.36841733 Z M 4.658666,172.8683 v -1.59863 l 2.0227131,0.0773 c 2.4065521,0.0919 2.9023231,0.49747 2.1715889,1.77633 -0.3164258,0.55378 -0.3563117,0.84248 -0.1455208,1.05327 0.2107909,0.21079 0.092302,0.29038 -0.4322922,0.29038 -0.3983064,0 -0.791038,-0.17813 -0.8749744,-0.39687 -0.086812,-0.22623 -0.48142,-0.39688 -0.917739,-0.39688 -0.5040048,0 -0.7654423,0.13556 -0.7654423,0.39688 0,0.22049 -0.2351854,0.39687 -0.5291666,0.39687 -0.4707785,0 -0.5291667,-0.17638 -0.5291667,-1.59862 z m 3.175,-0.38574 c 0,-0.28663 -0.2939812,-0.39687 -1.0583333,-0.39687 -0.7643522,0 -1.0583334,0.11024 -1.0583334,0.39687 0,0.28663 0.2939812,0.39688 1.0583334,0.39688 0.7643521,0 1.0583333,-0.11025 1.0583333,-0.39688 z m 1.8520833,0.39688 v -1.5875 h 0.8986337 c 0.697434,0 1.082484,0.20939 1.719791,0.93524 l 0.821159,0.93525 v -0.93525 c 0,-0.82121 0.08066,-0.93524 0.661458,-0.93524 0.63206,0 0.661458,0.0705 0.661458,1.5875 0,1.54943 -0.01717,1.5875 -0.716449,1.5875 -0.469249,0 -1.062635,-0.33805 -1.719792,-0.97974 l -1.003342,-0.97974 v 0.97974 c 0,0.86866 -0.07499,0.97974 -0.661458,0.97974 -0.6320608,0 -0.6614587,-0.0706 -0.6614587,-1.5875 z m 5.2916667,1.46106 c 0,-0.0695 0.322458,-0.78391 0.716576,-1.5875 0.651669,-1.32872 0.795118,-1.46106 1.58369,-1.46106 0.79438,0 0.934339,0.13316 1.668484,1.5875 l 0.801367,1.5875 h -0.649652 c -0.357309,0 -0.723236,-0.11907 -0.813173,-0.26459 -0.08994,-0.14552 -0.573215,-0.26458 -1.073949,-0.26458 -0.500735,0 -0.910426,0.11906 -0.910426,0.26458 0,0.14552 -0.297657,0.26459 -0.661459,0.26459 -0.363802,0 -0.661458,-0.0569 -0.661458,-0.12644 z m 2.910417,-1.08158 c 0,-0.0823 -0.131861,-0.39607 -0.293024,-0.69721 -0.235026,-0.43915 -0.338957,-0.47498 -0.525113,-0.18104 -0.386884,0.61089 -0.269645,1.02793 0.28897,1.02793 0.291042,0 0.529167,-0.0674 0.529167,-0.14968 z m 2.910416,0.0174 c 0,-1.14653 -0.0294,-1.19063 -0.79375,-1.19063 -0.529166,0 -0.79375,-0.13229 -0.79375,-0.39687 0,-0.32165 0.426273,-0.39688 2.248959,-0.39688 1.822685,0 2.248958,0.0752 2.248958,0.39688 0,0.26458 -0.264583,0.39687 -0.79375,0.39687 -0.764352,0 -0.79375,0.0441 -0.79375,1.19063 0,1.09361 -0.0539,1.19062 -0.661458,1.19062 -0.607563,0 -0.661459,-0.097 -0.661459,-1.19062 z m 3.439584,-0.39688 c 0,-1.51694 0.0294,-1.5875 0.661458,-1.5875 0.63206,0 0.661458,0.0706 0.661458,1.5875 0,1.51695 -0.0294,1.5875 -0.661458,1.5875 -0.63206,0 -0.661458,-0.0705 -0.661458,-1.5875 z m 7.14375,0 v -1.5875 h 0.91812 c 0.713335,0 1.049017,0.17705 1.504966,0.79375 0.322765,0.43657 0.683516,0.79375 0.801671,0.79375 0.118155,0 0.214826,-0.35718 0.214826,-0.79375 0,-0.61736 0.117591,-0.79375 0.529167,-0.79375 0.470371,0 0.529166,0.17639 0.529166,1.5875 0,1.58142 -0.003,1.5875 -0.780285,1.5875 -0.580827,0 -0.960837,-0.23671 -1.486612,-0.92604 -0.38848,-0.50932 -0.811257,-0.92604 -0.939506,-0.92604 -0.128249,0 -0.23318,0.41672 -0.23318,0.92604 0,0.74966 -0.100793,0.92604 -0.529167,0.92604 -0.470371,0 -0.529166,-0.17638 -0.529166,-1.5875 z m 5.820833,0 c 0.731631,-1.44935 0.875863,-1.58731 1.657456,-1.58536 0.777171,0.002 0.932246,0.14828 1.682305,1.5875 l 0.826217,1.58536 h -0.760071 c -0.418041,0 -0.760074,-0.11906 -0.760074,-0.26458 0,-0.14552 -0.409691,-0.26458 -0.910426,-0.26458 -0.500734,0 -0.984012,0.11906 -1.073949,0.26458 -0.08994,0.14552 -0.455864,0.26458 -0.813173,0.26458 h -0.649652 l 0.801367,-1.58748 z m 2.058072,-0.15523 c -0.29056,-0.63771 -0.335293,-0.65231 -0.655786,-0.21401 -0.500567,0.68457 -0.426344,0.89841 0.311833,0.89841 0.609346,0 0.633704,-0.0485 0.343953,-0.6844 z m 2.439845,0.15525 c 0,-1.51695 0.0294,-1.5875 0.661458,-1.5875 0.607563,0 0.661458,0.097 0.661458,1.19062 v 1.19063 h 1.322917 c 0.999538,0 1.322917,0.097 1.322917,0.39687 0,0.3175 -0.396875,0.39688 -1.984375,0.39688 h -1.984375 z m 12.699603,-3.21396 c 1.453988,-1.35559 4.824185,-3.66521 5.348263,-3.66521 0.08674,0 -0.455964,1.18875 -1.206013,2.64168 l -1.363728,2.64168 -2.248959,-0.008 -2.248958,-0.008 1.719395,-1.60302 z m 6.642581,0.0272 c 1.00393,-1.88356 2.545313,-3.70527 3.781597,-4.46933 0.485908,-0.30031 0.958713,-0.54602 1.050677,-0.54602 0.09197,0 0.167208,1.48828 0.167208,3.30729 v 3.3073 h -2.925932 -2.925931 z m 15.409712,-1.05075 c -0.750049,-1.45293 -1.292757,-2.64168 -1.206013,-2.64168 0.84741,0 6.670783,4.40695 6.670783,5.04825 0,0.13388 -0.922734,0.24154 -2.05052,0.23926 l -2.050521,-0.004 z"
         id="path554"
         sodipodi:nodetypes="sssscscssssssscsssssscscsssscsccssscsssscccccssscccccsscccccssscccccssssscssscccsssscccssscccccccccccssscccsssssssssssscscccccccsscccccsscccssssssssssssccccsscccssccccccsscccccsssssssssssscccsccccccccscsccccccssssccssscccssccccccsssssccssscsccssscccsssssccsssssccssssccssscccssssccccsccccssscccccccsssscccsscsscssscccccccccsssscscccssssccccsssscccccccsssccccccccccccccccccccccccccccccccccccssscccccccccccccccccccccccccccccssssssscccssscccccccccsccccccccccccsssccccsssccsssscssscsscsscccssscsssssscsssscssscccscccccsscccccccssssscsscccscccssscsscssssssssscccccssssscssssccscsssssssscsssssssssssssssssssssccssssssssssscccccsssssssscsssssscsscssssscssssssscsssssssssssssssssssssssssscssssssssssssscscsssssccsssssssscssscscsscccccsssscccscssccc" />
      <path
         style="fill:#495057;stroke-width:0.264583"
         d="m 86.282624,202.51273 c 0.568389,-0.58209 1.092968,-1.05834 1.165728,-1.05834 0.07276,0 -0.332756,0.47625 -0.901144,1.05834 -0.568389,0.58208 -1.092968,1.05833 -1.165728,1.05833 -0.07276,0 0.332756,-0.47625 0.901144,-1.05833 z M 81.652416,199.767 c 0,-0.0549 0.208359,-0.2633 0.463021,-0.46302 0.419645,-0.32911 0.429003,-0.31975 0.0999,0.0999 -0.345644,0.44073 -0.562917,0.58089 -0.562917,0.36313 z m 1.322917,-1.32292 c 0,-0.0549 0.208359,-0.2633 0.46302,-0.46302 0.419646,-0.32911 0.429004,-0.31975 0.0999,0.0999 -0.345644,0.44073 -0.562917,0.58088 -0.562917,0.36312 z M 19.01595,192.79787 c 0.402182,-0.0608 0.997495,-0.0592 1.322917,0.004 0.325421,0.0628 -0.0037,0.11256 -0.731243,0.11057 -0.727604,-0.002 -0.993857,-0.0534 -0.591674,-0.11418 z m 22.489583,0 c 0.402183,-0.0608 0.997495,-0.0592 1.322917,0.004 0.325421,0.0628 -0.0037,0.11256 -0.731242,0.11057 -0.727605,-0.002 -0.993857,-0.0534 -0.591675,-0.11418 z m -20.707284,-11.5517 c 0,-0.0549 0.20836,-0.2633 0.463021,-0.46303 0.419645,-0.3291 0.429004,-0.31974 0.0999,0.0999 -0.345643,0.44073 -0.562917,0.58089 -0.562917,0.36313 z m 61.085,-13.85688 c -0.329107,-0.41964 -0.319749,-0.429 0.0999,-0.0999 0.44073,0.34564 0.580888,0.56291 0.363125,0.56291 -0.05494,0 -0.2633,-0.20836 -0.463021,-0.46302 z M -28.149667,166.4295 c 0,-0.0549 0.208359,-0.2633 0.463021,-0.46302 0.419643,-0.32911 0.429002,-0.31975 0.09989,0.0999 -0.345643,0.44073 -0.562915,0.58089 -0.562915,0.36313 z m 114.419843,-2.08292 -1.045885,-1.12448 1.124479,1.04589 c 1.045755,0.97266 1.246063,1.20307 1.045885,1.20307 -0.04323,0 -0.549243,-0.50601 -1.124479,-1.12448 z"
         id="path544" />
      <path
         style="fill:#384048;stroke-width:0.264583"
         d="m -13.200709,210.18064 c -9.117653,-0.97343 -17.217888,-6.65395 -21.29315,-14.93243 -4.491771,-9.12457 -3.483961,-19.75546 2.643746,-27.88754 4.551494,-6.04029 11.09542,-9.74161 18.781696,-10.62316 3.2095728,-0.36811 79.939586,-0.34917 83.255278,0.0206 6.536135,0.72882 12.018963,3.43664 16.653902,8.22492 3.247435,3.35487 5.340096,7.06995 6.657197,11.81846 0.629798,2.2706 0.710136,3.02419 0.710136,6.66128 0,3.63709 -0.08034,4.39068 -0.710136,6.66128 -1.317101,4.74851 -3.409762,8.46359 -6.657197,11.81846 -4.634939,4.78828 -10.117767,7.4961 -16.653902,8.22492 -2.923373,0.32598 -80.343197,0.33828 -83.38757,0.0133 z m 85.857292,-2.74306 c 9.216935,-2.18127 16.110069,-8.8295 18.566762,-17.90712 0.868024,-3.20739 0.868024,-8.92808 0,-12.13547 -2.456709,-9.07766 -9.351285,-15.72719 -18.566762,-17.90684 -1.843863,-0.43612 -4.794621,-0.47621 -41.671875,-0.56625 -25.9502622,-0.0634 -40.8440073,-0.002 -43.028698,0.17755 -7.652372,0.62859 -13.756556,3.96977 -18.166325,9.94349 -5.304644,7.18597 -6.122626,17.46498 -2.031803,25.53229 3.709716,7.31574 11.245787,12.47487 19.299912,13.21256 1.313032,0.12026 20.6634241,0.19633 43.000872,0.16904 37.872607,-0.0463 40.747463,-0.0813 42.597917,-0.51925 z m -86.306218,-2.56179 c -4.094459,-0.60806 -8.371647,-2.72627 -11.545073,-5.71751 l -2.028918,-1.91244 5.754688,-0.0124 5.754687,-0.0124 v -0.79375 -0.79375 h -6.337051 -6.337051 l -0.921461,-1.65364 c -0.943084,-1.69245 -2.096102,-4.84271 -2.420987,-6.61459 l -0.181924,-0.99218 h 8.099237 8.099237 v -0.79375 -0.79375 h -8.241987 -8.24199 l 0.163155,-2.4474 c 0.08974,-1.34607 0.435115,-3.3999 0.76751,-4.56406 l 0.604354,-2.11667 7.474479,-0.0703 7.474479,-0.0703 v -0.9176 -0.9176 l -7.005576,-0.0705 -7.005578,-0.0705 1.084303,-1.71979 c 0.596367,-0.94588 2.018657,-2.64252 3.160644,-3.77031 l 2.076341,-2.05052 h 39.016935 39.016938 l 1.340495,-0.8333 c 0.737275,-0.45831 1.340501,-0.84527 1.340506,-0.8599 6e-6,-0.0146 -17.531948,-0.006 -38.959896,0.0188 l -38.959903,0.0454 1.425469,-0.65153 c 0.784011,-0.35834 2.331823,-0.91457 3.439583,-1.23605 l 2.014114,-0.58451 h 42.201042 c 40.304162,0 42.28429,0.0221 44.053125,0.49219 9.899848,2.63089 16.536458,11.0875 16.536458,21.07135 0,8.34067 -4.53822,15.61513 -12.038541,19.29696 -5.027152,2.46778 -0.57104,2.25267 -47.625,2.29901 -22.8467712,0.0225 -42.217851,-0.0598 -43.046843,-0.18291 z m 79.956218,-5.80265 v -3.43958 h -3.190516 -3.190515 l 0.862341,1.61792 c 1.054783,1.97898 2.88045,4.05339 4.164589,4.732 0.526473,0.27822 1.046523,0.51112 1.155663,0.51755 0.109141,0.006 0.198438,-1.53611 0.198438,-3.42789 z m 3.678343,2.92359 c 0.556286,-0.28379 1.539692,-1.10354 2.185345,-1.82166 6.673294,-7.42231 6.673294,-26.00237 0,-33.42468 -0.974945,-1.08437 -2.765404,-2.33766 -3.339606,-2.33766 -0.07856,0 -0.142832,1.54781 -0.142832,3.43958 v 3.43959 h 2.22023 2.220229 l 0.425604,1.06368 c 0.234082,0.58503 0.425603,1.12081 0.425603,1.19063 0,0.0698 -1.190625,0.12694 -2.645833,0.12694 h -2.645833 v 4.23333 4.23333 h 3.439583 3.439583 v 1.32292 1.32292 h -3.439583 -3.439583 v 4.23333 4.23333 h 2.645833 c 1.455208,0 2.645833,0.0571 2.645833,0.12694 0,0.0698 -0.191521,0.60559 -0.425603,1.19062 l -0.425604,1.06369 h -2.220229 -2.22023 v 3.43958 c 0,1.89178 0.06428,3.43959 0.142832,3.43959 0.07856,0 0.597975,-0.2322 1.154261,-0.516 z m -23.786677,-1.0715 v -0.79375 H 16.564916 -13.068417 v 0.79375 0.79375 h 29.633333 29.633333 z m 13.109951,-1.5952 c -0.655635,-1.06341 -1.322977,-2.33014 -1.482984,-2.81497 l -0.29092,-0.8815 h -4.741982 -4.741981 v 0.79375 0.79375 h 2.929093 2.929097 l 1.277998,1.07763 c 1.151816,0.97122 5.045244,3.2333 5.236276,3.04227 0.04261,-0.0426 -0.458965,-0.94752 -1.114597,-2.01093 z m 21.366999,-1.87055 1.903259,-1.8037 -2.544411,-0.0111 -2.544413,-0.0111 -0.537665,1.29376 c -0.295717,0.71158 -0.966433,1.96404 -1.490486,2.78327 -0.524049,0.81922 -0.952817,1.55274 -0.952817,1.63004 0,0.0773 0.959236,-0.3585 2.131637,-0.96845 1.335786,-0.69495 2.84222,-1.78242 4.034896,-2.9127 z m -87.3980111,-1.37242 c 0.3613865,-0.18285 0.7757055,-0.66981 0.9207104,-1.08213 0.2262557,-0.64335 0.1758182,-0.82079 -0.355645,-1.25115 -0.3406114,-0.27581 -0.8739955,-0.51738 -1.1852937,-0.53682 -0.7031196,-0.0439 1.7644031,-0.43895 2.9397272,-0.47064 l 0.8598959,-0.0232 v 1.85209 1.85208 h 1.190625 1.190625 v -1.85208 -1.85209 h 1.19062497 c 1.18432523,0 1.19062503,-0.005 1.19062503,-0.92604 v -0.92604 h -3.571875 c -2.9427064,0 -3.571875,0.0675 -3.571875,0.38337 0,0.33478 -0.1163109,0.33478 -0.9175433,0 -1.1649181,-0.48673 -3.8598844,-0.49478 -5.0082504,-0.015 -0.592992,0.24777 -0.941951,0.6084 -1.065662,1.1013 -0.292161,1.16406 0.482378,1.72007 2.74161,1.96807 1.0443577,0.11464 1.9571067,0.26671 2.0283273,0.33793 0.2854325,0.28543 -1.2268333,0.4412 -1.8783853,0.19348 -0.383376,-0.14575 -1.221238,-0.26501 -1.861921,-0.26501 -1.096079,0 -1.152027,0.0352 -0.947354,0.59531 0.119637,0.32742 0.502751,0.74239 0.851369,0.92214 0.825537,0.42567 4.4148398,0.42183 5.2596649,-0.006 z m -3.6997719,-3.36392 c 0,-0.14552 0.4692227,-0.26458 1.0427176,-0.26458 0.573495,0 1.1163036,0.11906 1.2062407,0.26458 0.09988,0.16161 -0.3059324,0.26459 -1.0427176,0.26459 -0.6634321,0 -1.2062407,-0.11906 -1.2062407,-0.26459 z m 12.7956813,3.3073 c 0.106844,-0.27844 0.541139,-0.39688 1.4552083,-0.39688 0.9140693,0 1.3483643,0.11844 1.4552083,0.39688 0.1198166,0.31224 0.6618764,0.39687 2.5418495,0.39687 h 2.3895526 l 0.01146,-1.38906 0.01146,-1.38906 1.245314,1.38915 c 1.170879,1.30613 1.32044,1.38916 2.502088,1.38907 l 1.256768,-1e-4 v -2.77812 -2.77813 h -1.176128 -1.176129 l -0.08064,1.19548 -0.08064,1.19548 -0.926042,-1.18546 c -0.903081,-1.15607 -0.963761,-1.18572 -2.4473958,-1.19548 l -1.5213542,-0.01 -0.00651,2.57969 -0.00651,2.57969 -1.3825511,-2.58728 -1.3825485,-2.58727 -1.2775009,0.0737 -1.2775009,0.0737 -1.4559598,2.71198 -1.45596238,2.71198 h 1.31609306 c 0.92578242,0 1.36125742,-0.1177 1.46838722,-0.39687 z m 0.9667028,-2.18282 c 0.00212,-0.10914 0.108495,-0.36335 0.2361459,-0.56491 0.1854333,-0.2928 0.29287,-0.25291 0.534424,0.19844 0.2626756,0.49081 0.2317009,0.56491 -0.236146,0.56491 -0.2961613,0 -0.5366517,-0.0893 -0.5344239,-0.19844 z m 19.3308839,1.80629 c 0.617993,-0.61799 0.773399,-1.0049 0.773399,-1.9255 0,-2.20914 -1.118929,-2.85328 -4.960938,-2.85587 l -2.182812,-10e-4 v 2.77813 2.77812 h 2.798476 c 2.740277,0 2.814564,-0.0161 3.571875,-0.7734 z m -4.253685,-1.87243 c 0,-0.77677 0.02848,-0.79375 1.33122,-0.79375 0.944213,0 1.375873,0.11636 1.48481,0.40024 0.265853,0.6928 -0.424567,1.18726 -1.6578,1.18726 -1.110533,0 -1.15823,-0.0327 -1.15823,-0.79375 z m 7.239432,2.24896 c 0.10745,-0.28001 0.544282,-0.39688 1.483516,-0.39688 1.006917,0 1.331219,0.0967 1.331219,0.39688 0,0.32338 0.440973,0.39687 2.38125,0.39687 2.36361,0 2.38125,-0.005 2.38125,-0.66146 0,-0.57528 0.116681,-0.66146 0.895612,-0.66146 0.663355,0 1.008004,0.17154 1.329015,0.66146 0.355473,0.54252 0.646401,0.66146 1.61793,0.66146 1.232178,0 1.463352,-0.23297 0.787651,-0.79375 -0.218281,-0.18116 -0.396875,-0.47881 -0.396875,-0.66146 0,-0.18264 0.178594,-0.4803 0.396875,-0.66146 0.450557,-0.37393 0.524658,-1.6481 0.137877,-2.37081 -0.401404,-0.75003 -1.713947,-1.06877 -4.401111,-1.06877 h -2.46448 l -0.07573,2.53413 -0.07573,2.53413 -1.322917,-2.53974 -1.322917,-2.53975 -1.307359,0.0718 -1.307362,0.0718 -1.404617,2.6275 c -0.772541,1.44513 -1.40462,2.66552 -1.40462,2.71198 0,0.0465 0.582575,0.0845 1.294609,0.0845 0.906687,0 1.340244,-0.11892 1.446906,-0.39687 z m 1.066636,-2.40289 c 0.08833,-0.23019 0.162422,-0.49808 0.16465,-0.59532 0.0054,-0.23672 0.515892,0.56209 0.521065,0.81539 0.0021,0.10914 -0.18728,0.19844 -0.421132,0.19844 -0.279009,0 -0.36997,-0.14388 -0.264583,-0.41851 z m 6.510599,-0.50753 c 0,-0.34383 0.252137,-0.40933 1.326388,-0.34456 1.767941,0.1066 1.811761,0.58842 0.06267,0.68912 -1.131777,0.0652 -1.389063,10e-4 -1.389063,-0.34456 z m 11.938156,2.56211 c 0.672055,-0.60048 0.834004,-0.95041 0.834004,-1.80206 0,-2.30004 -1.137121,-3.00901 -4.826162,-3.00901 h -2.389748 v 2.77813 2.77812 h 2.77395 c 2.66819,0 2.80575,-0.0284 3.607956,-0.74518 z m -4.265239,-1.90065 v -0.82141 l 1.389062,0.08 c 1.283952,0.0739 1.389063,0.13002 1.389063,0.74143 0,0.6114 -0.105111,0.66751 -1.389063,0.74143 l -1.389062,0.08 z m 15.492423,-1.38906 c -0.456899,-2.13363 -0.938414,-5.45654 -0.939332,-6.4823 l -10e-4,-1.12447 h -3.571875 c -3.568499,0 -3.571875,5.2e-4 -3.571875,0.61913 0,1.02165 0.999143,4.60676 1.750417,6.28082 l 0.703099,1.56671 h 2.907355 2.907358 z m 9.907577,-3.37344 v -4.23333 h -4.271375 -4.271373 l 0.181938,2.18161 c 0.164079,1.96743 0.83643,5.58293 1.131888,6.08661 0.06402,0.10914 1.71672,0.19844 3.672662,0.19844 h 3.55626 z m 18.622499,2.66662 c 0.751274,-1.67406 1.750417,-5.25917 1.750417,-6.28082 0,-0.61855 -0.0034,-0.61913 -3.571875,-0.61913 h -3.571875 l -0.0011,1.12447 c -7.94e-4,1.02576 -0.482433,4.34867 -0.939332,6.4823 l -0.184089,0.85989 h 2.907358 2.907356 z m -59.308034,-3.46614 c 0.429892,-0.13533 0.783929,-0.12661 0.875509,0.0216 0.08548,0.13832 2.008015,0.24878 4.329811,0.24878 h 4.176053 l 0.498706,-0.92604 0.498707,-0.92604 h 2.325363 2.325364 l 0.441598,0.92604 0.441597,0.92604 h 2.332247 c 1.282737,0 2.336866,-0.0893 2.34251,-0.19844 0.0056,-0.10914 -1.214745,-2.61026 -2.71198,-5.55805 l -2.722242,-5.35962 -2.366769,0.0679 -2.366772,0.0679 -2.792603,5.23414 -2.792606,5.23413 -0.166156,-3.64663 c -0.09138,-2.00565 -0.180681,-3.73559 -0.198437,-3.84431 -0.01775,-0.10872 -0.456443,-0.66717 -0.974865,-1.241 -1.335429,-1.47816 -2.938622,-1.96088 -6.030119,-1.81566 -2.718689,0.1277 -4.120423,0.67396 -5.286973,2.06032 -2.134391,2.53658 -1.352569,6.90828 1.49919,8.38298 1.477872,0.76423 4.473424,0.92811 6.322867,0.34589 z m -4.864434,-0.5167 c -2.637848,-0.79689 -3.868528,-2.92065 -3.349685,-5.78047 0.2819,-1.55382 1.038807,-2.52951 2.533271,-3.2655 1.05278,-0.51847 1.659808,-0.61687 3.768466,-0.61087 2.091468,0.006 2.704108,0.1077 3.6484,0.60598 0.981986,0.51817 2.168385,1.88175 2.171444,2.49572 5.29e-4,0.10915 -0.658675,0.19844 -1.464932,0.19844 -1.079085,0 -1.666333,-0.14817 -2.225379,-0.56149 -0.643808,-0.47599 -1.030319,-0.54424 -2.538182,-0.44823 -2.190022,0.13945 -2.766351,0.67438 -2.766351,2.56766 0,1.51056 0.496279,2.2716 1.75146,2.68585 1.675593,0.55299 4.333957,-0.18747 4.333957,-1.20718 0,-0.30457 -0.379408,-0.39077 -1.719792,-0.39077 h -1.719792 v -0.92605 -0.92604 h 3.175 3.175 v 2.91042 2.91041 h -1.159766 c -0.936041,0 -1.186376,-0.10176 -1.297715,-0.52751 -0.137541,-0.52596 -0.141338,-0.52597 -1.28763,-0.006 -1.202877,0.54584 -3.682947,0.68171 -5.027773,0.27544 z m 10.624969,0.10167 c 0,-0.0859 1.14011,-2.28857 2.533581,-4.89479 l 2.533584,-4.73858 h 2.033799 2.033802 l 2.443154,4.89479 2.443155,4.89479 h -1.732373 c -1.729764,0 -1.732952,-0.001 -2.119296,-0.92604 l -0.386924,-0.92604 H 38.306202 35.44834 l -0.441598,0.92604 c -0.432414,0.90679 -0.474705,0.92604 -2.033378,0.92604 -0.87548,0 -1.591781,-0.0703 -1.591781,-0.15621 z m 8.454183,-4.14326 c -0.0069,-0.18191 -0.34934,-0.98156 -0.761055,-1.77701 l -0.748575,-1.44629 -0.826445,1.63718 c -0.454543,0.90044 -0.826442,1.7001 -0.826442,1.77701 0,0.0769 0.714375,0.13984 1.5875,0.13984 1.100267,0 1.583669,-0.10151 1.575017,-0.33073 z m -2.104183,-0.41246 c 0,-0.1177 0.154778,-0.42568 0.343953,-0.68439 0.320492,-0.4383 0.365225,-0.4237 0.655785,0.21401 0.289751,0.63593 0.265393,0.6844 -0.343953,0.6844 -0.360682,0 -0.655785,-0.0963 -0.655785,-0.21402 z m -15.974272,1.46151 c -0.734589,-0.53715 -0.857544,-2.31041 -0.215201,-3.10367 0.450947,-0.55689 0.756263,-0.65736 1.997659,-0.65736 0.819507,0 1.611122,0.14576 1.796084,0.33073 0.264584,0.26458 0.02911,0.33073 -1.177395,0.33073 h -1.508125 v 1.57367 1.57367 l 1.389062,0.0972 1.389063,0.0972 -1.603076,0.049 c -0.962631,0.0294 -1.788846,-0.0869 -2.068071,-0.29107 z m -30.0404742,2.12595 0.022754,-1.65365 0.7718743,1.65365 0.7718742,1.65364 h 1.8103585 1.8103559 l 0.6779922,-1.52135 0.6779921,-1.52136 0.024315,1.52136 0.024315,1.52135 H 0.42533531 2.542002 v -5.55625 -5.55625 H 0.01979521 -2.5024142 L -3.711822,179.957 c -1.1446404,2.44154 -1.2251901,2.54426 -1.5041562,1.91823 -0.1621129,-0.3638 -0.6825377,-1.52466 -1.1564964,-2.57969 l -0.8617479,-1.91823 h -2.6525115 -2.652514 v 5.55625 5.55625 h 2.116667 2.1166663 l 0.022754,-1.65364 z m -3.4623378,-3.77032 v -4.89479 h 2.0829882 2.0829878 l 1.2579827,2.91042 c 0.6918907,1.60073 1.3321241,2.90764 1.4227413,2.90426 0.090617,-0.003 0.7471145,-1.31308 1.4588834,-2.91042 l 1.2941247,-2.90426 h 2.07931278 2.07931282 v 4.89479 4.89479 H 0.55762433 -0.897584 v -2.79374 c 0,-1.53655 -0.0973243,-2.73358 -0.2162784,-2.66007 -0.118954,0.0735 -0.7298346,1.33639 -1.3575135,2.80637 l -1.1412353,2.6727 -1.3411861,-0.0788 -1.3411862,-0.0788 -1.0237681,-2.38125 c -0.5630704,-1.30968 -1.1345942,-2.49436 -1.2700503,-2.6326 -0.152318,-0.15546 -0.2462821,0.77829 -0.2462821,2.4474 v 2.69874 h -1.455208 -1.455209 z m 27.516667,3.70417 v -1.71979 l -3.638021,-0.0578 -3.6380207,-0.0578 3.5057297,-0.0822 3.505729,-0.0822 v -1.70444 -1.70443 l -3.505729,-0.0822 -3.5057297,-0.0822 3.6380207,-0.0578 3.638021,-0.0578 v -1.85208 -1.85209 H 10.082624 4.3940827 v 5.55625 5.55625 h 5.6885413 5.688542 z M 4.9232493,183.06585 v -4.89479 h 5.1593747 5.159375 v 1.05834 1.05833 H 11.670124 8.0982493 v 0.79375 0.79375 h 3.4395837 3.439583 v 1.05833 1.05834 H 11.537833 8.0982493 v 0.79375 0.79375 h 3.5718747 3.571875 v 1.19062 1.19062 H 10.082624 4.9232493 Z m 50.5364247,-2.05052 c 7.94e-4,-1.02575 0.482433,-4.34867 0.939332,-6.48229 l 0.184139,-0.85989 h -4.266406 -4.266406 v 0.92604 c 0,0.87642 0.04811,0.92604 0.89794,0.92604 h 0.89794 l -0.620003,1.9524 c -0.341,1.07382 -0.700881,2.5621 -0.799735,3.30729 l -0.179732,1.35489 h 3.605962 3.605961 l 0.0011,-1.12448 z m 10.846909,-3.11632 v -4.2408 l -3.631962,0.0736 -3.631965,0.0736 -0.460549,1.98322 c -0.253302,1.09077 -0.540293,2.966 -0.637755,4.16718 l -0.177207,2.18397 h 4.269719 4.269719 z m 20.372916,3.62167 c 0,-1.02165 -0.999143,-4.60676 -1.750417,-6.28082 l -0.703098,-1.56671 H 81.318628 78.41127 l 0.18414,0.85989 c 0.456898,2.13362 0.938413,5.45654 0.939331,6.48229 l 0.001,1.12448 h 3.571875 c 3.568499,0 3.571875,-5.3e-4 3.571875,-0.61913 z m -56.290104,-7.25931 c 0.694711,-0.60864 0.619763,-2.30052 -0.125018,-2.82218 -0.885404,-0.62016 -3.243154,-0.54943 -3.909878,0.11729 -0.603509,0.60351 -0.692253,1.79249 -0.18551,2.4855 0.658723,0.90086 3.286639,1.03747 4.220406,0.21939 z m -2.858518,-1.14044 c -0.09777,-0.15821 -0.059,-0.40641 0.08616,-0.55157 0.403426,-0.40343 1.498981,-0.1456 1.59843,0.37618 0.06825,0.35809 -0.0925,0.46302 -0.709287,0.46302 -0.438645,0 -0.87753,-0.12943 -0.975304,-0.28763 z m -39.011794,-0.24153 v -1.85209 h -0.79375 -0.79375 v 1.85209 1.85208 h 0.79375 0.79375 z m 2.1166663,0.86575 v -0.98632 l 0.8130117,0.98632 c 0.650113,0.7887 0.994701,0.98633 1.7197917,0.98633 h 0.90678 v -1.85208 -1.85209 h -0.79375 c -0.6850142,0 -0.79375,0.0974 -0.79375,0.71096 v 0.71096 l -0.7420822,-0.71096 c -0.531712,-0.50941 -1.0192464,-0.71096 -1.7197917,-0.71096 h -0.9777098 v 1.85209 1.85208 h 0.79375 c 0.7399949,0 0.7937503,-0.0668 0.7937503,-0.98633 z m 6.8791667,-0.2043 c 0,-1.18432 0.00489,-1.19062 0.9260417,-1.19062 0.81138974,0 0.92604163,-0.0819 0.92604163,-0.66146 0,-0.65914 -0.008811,-0.66146 -2.51354163,-0.66146 -2.5047231,0 -2.5135417,0.002 -2.5135417,0.66146 0,0.55857 0.1234731,0.66146 0.79375,0.66146 0.7643521,0 0.79375,0.0441 0.79375,1.19062 0,1.14653 0.029398,1.19063 0.79375,1.19063 0.7643521,0 0.79375,-0.0441 0.79375,-1.19063 z m 6.35,0.66146 c 0,-0.45575 -0.192704,-0.53595 -1.3890625,-0.57811 l -1.3890625,-0.0489 1.3890625,-0.0972 c 1.1669898,-0.0816 1.3890625,-0.17956 1.3890625,-0.61251 0,-0.43908 -0.2055654,-0.52259 -1.3890625,-0.56428 l -1.3890625,-0.0489 1.3890625,-0.0972 c 1.1669898,-0.0816 1.3890625,-0.17957 1.3890625,-0.61252 0,-0.46778 -0.1953207,-0.51534 -2.1166667,-0.51534 h -2.11666663 v 1.85209 1.85208 H 1.7482493 c 1.9402769,0 2.1166667,-0.0441 2.1166667,-0.52917 z m 2.1166667,0.13229 c 0,-0.21828 0.2235464,-0.39687 0.496771,-0.39687 0.273222,0 0.6449881,0.17859 0.8261456,0.39687 0.1811576,0.21829 0.6719861,0.39688 1.090729,0.39688 0.7422991,0 1.0120127,-0.34302 0.5124714,-0.65176 -0.1433116,-0.0886 -0.065119,-0.47401 0.1843379,-0.90866 0.4031588,-0.70247 0.4016454,-0.80304 -0.021802,-1.4493 -0.4281726,-0.65348 -0.5795407,-0.69445 -2.5655852,-0.69445 h -2.110568 v 1.85209 1.85208 h 0.79375 c 0.5291666,0 0.79375,-0.13229 0.7937503,-0.39688 z m 0.4661058,-1.90692 c 0.3291179,-0.0633 0.8053679,-0.0609 1.0583334,0.005 0.2529655,0.0662 -0.016325,0.118 -0.5983976,0.11506 -0.5820833,-0.003 -0.7890536,-0.0571 -0.4599358,-0.1204 z m 4.5719925,1.31161 0.01101,-0.99219 0.876922,0.99219 c 0.846087,0.9573 0.938186,0.99219 2.619206,0.99219 0.958254,0 1.815867,-0.11906 1.905804,-0.26458 0.08994,-0.14553 0.513683,-0.26459 0.941657,-0.26459 0.427975,0 0.778135,0.11906 0.778135,0.26459 0,0.14552 0.416718,0.26458 0.926041,0.26458 0.509323,0 0.926042,-0.0643 0.926042,-0.14283 0,-0.0786 -0.240546,-0.61434 -0.534543,-1.19063 l -0.53454,-1.04779 h 0.799129 c 0.770723,0 0.799126,0.0423 0.799126,1.19062 0,1.14653 0.0294,1.19063 0.79375,1.19063 0.764352,0 0.79375,-0.0441 0.79375,-1.19063 0,-1.18432 0.0049,-1.19062 0.926042,-1.19062 0.811389,0 0.926041,-0.0819 0.926041,-0.66146 0,-0.65914 -0.0088,-0.66146 -2.513541,-0.66146 -2.421033,0 -2.513542,0.0216 -2.513542,0.58804 v 0.58804 l -0.411877,-0.58804 c -0.284731,-0.40651 -0.682553,-0.58804 -1.28869,-0.58804 -0.812012,0 -0.947214,0.13199 -1.829409,1.78594 l -0.952597,1.78594 -0.0077,-1.78594 c -0.0074,-1.72657 -0.02966,-1.78594 -0.669129,-1.78594 -0.567666,0 -0.662982,0.12193 -0.672211,0.8599 l -0.01074,0.85989 -0.736121,-0.85989 c -0.582801,-0.68079 -0.938784,-0.8599 -1.70905,-0.8599 H 9.6857493 v 1.85209 c 0,1.79916 0.018891,1.85208 0.6614587,1.85208 0.586004,0 0.662715,-0.11318 0.672473,-0.99219 z m 6.074402,-0.87551 c 0,-0.15411 0.119062,-0.20661 0.264583,-0.11668 0.145521,0.0899 0.264583,0.21603 0.264583,0.2802 0,0.0642 -0.119062,0.11668 -0.264583,0.11668 -0.145521,0 -0.264583,-0.12609 -0.264583,-0.2802 z m 8.466666,0.0156 c 0,-1.79917 -0.01889,-1.85209 -0.661458,-1.85209 -0.642559,0 -0.661458,0.0529 -0.661458,1.85209 0,1.79916 0.01889,1.85208 0.661458,1.85208 0.642559,0 0.661458,-0.0529 0.661458,-1.85208 z m 7.14375,0.91683 v -0.93525 l 0.821159,0.93525 c 0.790929,0.90082 0.88833,0.93525 2.645833,0.93525 1.040061,0 1.824675,-0.11377 1.824675,-0.26458 0,-0.14553 0.416719,-0.26459 0.926042,-0.26459 0.509323,0 0.926041,0.11906 0.926041,0.26459 0,0.16105 1.190625,0.26458 3.042709,0.26458 h 3.042708 V 174.07 c 0,-0.61736 -0.08819,-0.66146 -1.322917,-0.66146 h -1.322916 v -1.19062 c 0,-1.14653 -0.0294,-1.19063 -0.79375,-1.19063 h -0.79375 l -0.01302,1.78594 -0.01302,1.78594 -0.916676,-1.78594 c -0.861949,-1.67931 -0.970833,-1.78594 -1.823749,-1.78594 -0.836308,0 -0.980191,0.12901 -1.844355,1.65365 l -0.937284,1.65364 -0.0041,-1.65364 -0.0041,-1.65365 h -0.79375 c -0.709954,0 -0.79375,0.0859 -0.79375,0.81405 v 0.81405 l -0.684977,-0.81405 c -0.549881,-0.65349 -0.889077,-0.81405 -1.719792,-0.81405 h -1.034815 v 1.85209 1.85208 h 0.79375 c 0.732243,0 0.79375,-0.0725 0.79375,-0.93525 z m 5.953125,-0.91683 c 0.08994,-0.14553 0.216027,-0.26459 0.280199,-0.26459 0.06417,0 0.116676,0.11906 0.116676,0.26459 0,0.14552 -0.12609,0.26458 -0.280199,0.26458 -0.154109,0 -0.206613,-0.11906 -0.116676,-0.26458 z m 19.167592,-2.46901 c 0.160007,-0.48482 0.824084,-1.74626 1.475727,-2.8032 0.651644,-1.05693 1.184806,-1.97597 1.184806,-2.0423 0,-0.0663 -0.959236,0.37843 -2.131636,0.98838 -1.335786,0.69496 -2.842221,1.78242 -4.034896,2.9127 l -1.903259,1.80371 2.559169,0.0111 2.559169,0.0111 0.29092,-0.8815 z m 8.481367,-2.55808 c 0,-1.89177 -0.06428,-3.43958 -0.142833,-3.43958 -0.07856,0 -0.597974,0.23219 -1.154261,0.51599 -1.322067,0.67447 -3.142564,2.72079 -4.221596,4.74526 l -0.862341,1.61792 h 3.190516 3.190515 z m 14.368616,1.61366 c -1.192676,-1.13028 -2.69911,-2.21774 -4.034896,-2.9127 -1.172401,-0.60995 -2.131637,-1.04575 -2.131637,-0.96845 0,0.0773 0.428768,0.81082 0.952817,1.63004 0.524053,0.81923 1.194769,2.0717 1.490486,2.78327 l 0.537665,1.29377 2.544413,-0.0111 2.544411,-0.0111 -1.903259,-1.8037 z"
         id="path542" />
    </g>
  </g>
</svg>
