<?xml version="1.0" encoding="UTF-8" standalone="no"?>
<!-- Created with Inkscape (http://www.inkscape.org/) -->

<svg
   width="308.60489mm"
   height="105.38977mm"
   viewBox="0 0 308.60489 105.38977"
   version="1.1"
   id="svg589"
   inkscape:export-filename="d.svg"
   inkscape:export-xdpi="96"
   inkscape:export-ydpi="96"
   xmlns:inkscape="http://www.inkscape.org/namespaces/inkscape"
   xmlns:sodipodi="http://sodipodi.sourceforge.net/DTD/sodipodi-0.dtd"
   xmlns="http://www.w3.org/2000/svg"
   xmlns:svg="http://www.w3.org/2000/svg">
  <sodipodi:namedview
     id="namedview591"
     pagecolor="#ffffff"
     bordercolor="#000000"
     borderopacity="0.25"
     inkscape:showpageshadow="2"
     inkscape:pageopacity="0.0"
     inkscape:pagecheckerboard="0"
     inkscape:deskcolor="#d1d1d1"
     inkscape:document-units="mm"
     showgrid="false" />
  <defs
     id="defs586" />
  <g
     inkscape:label="Layer 1"
     inkscape:groupmode="layer"
     id="layer1"
     transform="translate(-25.066699,-49.282364)">
    <g
       id="g568"
       transform="translate(59.961881,-154.1064)">
      <path
         style="fill:#fe6d0a;stroke-width:0.264583"
         d="m 185.74503,308.72794 c -8.55009,-0.63958 -18.66207,-2.01393 -24.08675,-3.27369 -12.24971,-2.84473 -23.70287,-8.96523 -32.36745,-17.29698 -2.12171,-2.0402 -6.41962,-7.37028 -8.03497,-9.9646 -2.02731,-3.25595 -5.5246,-10.9928 -5.48832,-12.14152 0.003,-0.0837 0.78214,1.32891 1.73222,3.13902 2.71886,5.18003 5.56042,8.91511 10.08982,13.26253 8.55701,8.21323 19.64635,13.78136 32.33137,16.23408 25.32916,4.89753 55.83243,3.12131 76.89017,-4.47737 17.49182,-6.31192 26.16261,-15.65096 24.75749,-26.66556 -0.7479,-5.86277 -3.80048,-12.16675 -9.18824,-18.975 -2.15098,-2.71809 -9.89777,-10.51294 -13.18951,-13.27132 -13.64898,-11.43751 -29.80763,-20.89753 -48.41875,-28.34657 -1.87252,-0.74947 -0.58134,-0.47834 2.13083,0.44745 11.03094,3.76537 25.79698,10.90675 36.63063,17.71588 20.4188,12.83355 34.75249,26.46743 40.98026,38.97952 2.29322,4.60728 3.18166,7.90577 3.19574,11.86473 0.0196,5.51176 -2.04563,9.90793 -6.77746,14.42701 -7.12727,6.80681 -19.18687,11.94591 -36.20791,15.42971 -10.86791,2.2244 -17.72003,2.85115 -32.14688,2.94042 -6.33016,0.0392 -12.10469,0.0267 -12.83229,-0.0277 z m -2.51354,-10.30745 c -22.68885,-1.236 -34.53285,-4.31582 -46.07924,-11.98207 -7.84519,-5.20884 -13.72132,-11.72926 -17.69801,-19.63851 -4.0208,-7.99696 -5.23256,-18.41599 -3.25889,-28.02064 2.59467,-12.62674 11.0972,-23.76698 22.77754,-29.84376 7.16654,-3.72844 16.53271,-5.87865 23.97871,-5.50483 23.61955,1.1858 60.14402,19.35861 81.13667,40.36969 7.6231,7.6298 11.96168,14.03222 13.90814,20.52424 0.96386,3.21471 1.03,7.05165 0.16936,9.82293 -2.31775,7.4631 -12.07121,14.39046 -26.38324,18.73858 -8.21735,2.49651 -16.84248,4.06725 -27.63946,5.03348 -4.22273,0.37789 -17.38291,0.69312 -20.91158,0.50089 z m 7.98502,-16.6906 c 3.53467,-1.6733 5.61471,-4.53866 6.05528,-8.3415 0.12318,-1.06319 0.22919,-7.49925 0.23558,-14.30235 l 0.0116,-12.36927 h -3.96875 -3.96875 v 0.9277 0.9277 l -1.06322,-0.77019 c -2.17184,-1.57328 -5.87926,-1.76358 -8.58335,-0.44059 -1.67641,0.82019 -2.6049,1.82612 -3.55664,3.85329 -0.6421,1.36766 -0.68884,1.74632 -0.77686,6.29394 -0.1361,7.03126 0.36027,9.16057 2.64661,11.35345 2.41489,2.31617 7.35496,2.72741 10.05138,0.83672 0.38627,-0.27084 0.77322,-0.49244 0.8599,-0.49244 0.0867,0 0.15715,0.98227 0.1566,2.18281 -0.001,2.51064 -0.46273,3.56505 -1.90554,4.35278 -0.70485,0.38483 -1.45367,0.47142 -3.9143,0.4526 -1.67349,-0.0128 -3.47831,-0.14902 -4.0107,-0.30272 -0.95423,-0.27548 -0.9701,-0.26763 -1.11544,0.55243 -0.0811,0.45754 -0.16918,1.96299 -0.19575,3.34543 l -0.0483,2.51354 1.16375,0.17122 c 0.64006,0.0942 3.18781,0.1534 5.66167,0.13165 4.46308,-0.0393 4.5116,-0.046 6.26523,-0.8762 z m -6.46031,-18.49395 c -0.94509,-0.5128 -1.12793,-1.26089 -1.12741,-4.61292 2.6e-4,-2.14596 0.10578,-2.971 0.46344,-3.62571 0.80191,-1.46792 3.27664,-1.70401 4.4763,-0.42704 0.57984,0.61721 0.61608,0.85817 0.61608,4.09577 v 3.43997 l -0.86407,0.77204 c -0.98438,0.87954 -2.35019,1.01668 -3.56434,0.35789 z m 54.03779,9.65494 c 1.7781,-0.40514 4.23333,-1.34104 4.23333,-1.61368 0,-0.13173 -0.80367,-1.7034 -1.78594,-3.49261 l -1.78593,-3.25311 -0.79375,0.48396 c -1.14462,0.69788 -3.54156,0.66258 -4.46752,-0.0658 -1.20862,-0.95069 -1.56541,-1.99333 -1.66695,-4.87142 -0.11719,-3.32102 0.38422,-5.00579 1.71984,-5.77883 1.2867,-0.74472 2.67806,-0.69539 3.93996,0.13969 l 1.0576,0.69988 2.68258,-2.69173 2.68256,-2.69174 -0.86561,-0.69071 c -3.67303,-2.93077 -8.86511,-3.4052 -13.36191,-1.22094 -4.15084,2.01622 -5.86867,5.48204 -5.86727,11.8375 0,5.20656 0.95938,8.11345 3.43903,10.43286 1.43187,1.33935 2.85663,2.12315 4.82089,2.65207 1.65285,0.44508 4.36608,0.50124 6.01909,0.1246 z m -80.09457,-0.3697 c 0.98669,-0.20908 2.39632,-0.70797 3.1325,-1.10865 1.7849,-0.97146 3.75813,-3.17998 4.5132,-5.05133 0.57039,-1.41366 0.61269,-1.88292 0.60206,-6.67985 -0.0128,-5.7534 -0.14949,-6.4033 -1.87866,-8.92899 -3.05319,-4.45962 -10.45408,-5.64934 -15.37154,-2.47103 -2.96887,1.91887 -4.16527,4.10288 -4.61765,8.42941 -0.96843,9.2621 1.89918,14.54075 8.65111,15.92485 1.62577,0.33327 3.00632,0.30148 4.96898,-0.11441 z m -4.22747,-7.33571 c -1.10135,-0.53212 -1.41907,-1.75712 -1.42119,-5.47946 -0.003,-4.90293 0.55384,-5.94921 3.1442,-5.91005 2.2627,0.0342 2.95649,1.41531 2.95649,5.88539 0,3.27689 -0.29546,4.54258 -1.23247,5.27963 -0.75634,0.59494 -2.45174,0.70535 -3.44703,0.22449 z m -17.27796,4.02088 v -3.43958 h -1.79917 c -1.04658,0 -1.93198,-0.13281 -2.11667,-0.3175 -0.23852,-0.23853 -0.3175,-3.62773 -0.3175,-13.62605 v -13.30854 h -3.97744 -3.97744 l 0.0748,14.35365 0.0748,14.35365 0.62443,1.19062 c 1.66264,3.17026 3.70544,4.15779 8.70214,4.20676 l 2.71198,0.0266 z m 78.31666,-8.99583 V 247.7751 h -3.96875 -3.96875 v 12.43542 12.43541 h 3.96875 3.96875 z m 0,-18.91771 v -3.04271 h -3.96875 -3.96875 v 3.04271 3.04271 h 3.96875 3.96875 z"
         id="path574" />
      <path
         style="fill:#262a3f;stroke-width:0.264583"
         d="m -26.847684,272.23793 c -3.364433,-0.61125 -5.837818,-1.75672 -7.412448,-3.43283 l -0.63505,-0.67599 2.525396,-2.52539 2.525396,-2.5254 1.014724,0.68861 c 2.941521,1.99617 8.944926,2.22135 10.76259,0.40368 0.617154,-0.61715 0.744392,-0.96997 0.744392,-2.06414 0,-1.14889 -0.105389,-1.40843 -0.81405,-2.00473 -0.447728,-0.37673 -0.894212,-0.68552 -0.992187,-0.68619 -1.276766,-0.009 -7.430474,-1.16213 -8.599944,-1.6119 -1.858663,-0.71482 -3.90762,-2.4871 -4.641928,-4.01512 -0.81994,-1.7062 -1.155152,-4.35547 -0.818077,-6.46548 0.663894,-4.15581 3.561222,-7.28128 7.796394,-8.4103 2.101326,-0.56017 7.117034,-0.56331 9.260417,-0.006 2.100117,0.54626 4.594167,1.77853 5.488088,2.71158 l 0.7205481,0.7521 -2.4428581,2.42816 -2.442861,2.42817 -1.709936,-0.85041 c -1.545474,-0.76863 -1.939916,-0.85042 -4.101042,-0.85042 -2.011841,0 -2.541275,0.0934 -3.337863,0.58882 -1.58065,0.98304 -2.008814,2.61433 -1.017099,3.87509 0.818807,1.04094 1.213497,1.17694 5.054226,1.74151 1.938317,0.28492 4.165059,0.72508 4.948313,0.97813 1.842404,0.59524 3.999081,2.53754 4.746318,4.27453 1.2649753,2.94052 1.2695314,6.91741 0.0109,9.5208 -2.292782,4.7425 -9.123833,7.09705 -16.63236,5.73291 z m 66.15782,0.11898 c -2.89593,-0.56767 -5.73219,-2.72972 -7.000211,-5.33617 -1.126953,-2.31648 -1.558591,-7.6307 -0.939977,-11.57272 0.847733,-5.40204 4.925277,-8.72497 10.706328,-8.72497 5.408131,0 9.267346,2.88921 10.492174,7.855 0.17186,0.69677 0.318386,3.05278 0.325614,5.23559 0.01151,3.47608 -0.06474,4.20974 -0.614285,5.91009 -0.704969,2.18126 -2.416334,4.32863 -4.355325,5.46496 -2.120225,1.24253 -5.734675,1.7327 -8.614318,1.16822 z m 5.042112,-7.59245 c 0.872662,-0.97668 1.182674,-3.16218 0.952503,-6.71491 -0.163933,-2.53034 -0.632868,-3.68157 -1.697152,-4.16649 -0.881697,-0.40173 -2.34747,-0.35754 -3.226988,0.0973 -1.20877,0.62508 -1.479335,1.69197 -1.479335,5.83331 0,3.18498 0.07121,3.82184 0.508053,4.54373 0.677846,1.12014 1.350451,1.42185 2.915816,1.30793 1.057363,-0.077 1.444795,-0.24912 2.027103,-0.90084 z m 25.494311,7.51241 c -3.285117,-0.7981 -5.930082,-2.81925 -7.099517,-5.42509 -0.933683,-2.08053 -1.223891,-3.78077 -1.223891,-7.17043 0,-3.38966 0.290204,-5.0899 1.223891,-7.17043 0.4308,-0.95995 1.033555,-1.81343 1.765518,-2.55093 3.63604,-3.66353 10.460421,-4.4649 15.23312,-1.23659 l 1.421488,0.96151 -2.588118,2.59787 -2.588117,2.59786 -0.945308,-0.64235 c -1.41351,-0.9605 -3.162602,-0.8946 -4.368988,0.16462 -1.154081,1.01329 -1.53153,2.14559 -1.570252,4.71055 -0.04572,3.02849 0.246578,4.3239 1.233183,5.46523 0.726649,0.84061 1.05406,1.00848 2.171197,1.11323 1.102194,0.10335 1.478304,0.0122 2.319449,-0.56236 0.552164,-0.37714 1.090298,-0.68571 1.195851,-0.68571 0.105552,0 1.308719,1.12147 2.673704,2.49215 l 2.481789,2.49216 -0.767223,0.66716 c -2.47075,2.14849 -6.921741,3.06733 -10.567776,2.18155 z M 0.40439989,255.58031 V 238.77927 H 4.2408583 8.0773167 v 4.87562 4.87562 l 1.6237162,-0.83741 c 1.2827451,-0.66156 2.0286211,-0.85786 3.5518701,-0.93478 3.259233,-0.16459 5.674336,1.02675 7.135334,3.51975 1.236144,2.10932 1.437809,3.9876 1.44282,13.43818 l 0.0046,8.6651 H 18.009605 14.18355 l -0.07655,-8.62096 -0.07655,-8.62096 -0.864071,-0.77175 c -0.688253,-0.61472 -1.110864,-0.77175 -2.076979,-0.77175 -1.026608,0 -1.3510819,0.13818 -2.1124919,0.89959 l -0.8995834,0.89958 v 8.49313 8.49312 H 4.2408583 0.40439989 Z m 89.16458511,0 v -16.80104 h 3.832794 3.832791 l 0.06981,8.46974 0.06981,8.46974 3.43959,-4.49902 3.43958,-4.49902 4.0349,-0.002 4.03489,-0.002 v 0.62171 c 0,0.42572 -1.27201,2.06161 -4.03489,5.18914 -2.2192,2.51208 -4.07239,4.66649 -4.1182,4.78757 -0.0458,0.12109 2.00801,3.4838 4.56406,7.4727 2.55605,3.9889 4.64737,7.32925 4.64737,7.423 0,0.0937 -2.07122,0.17046 -4.6027,0.17046 h -4.60269 l -2.57508,-4.56406 c -1.4163,-2.51024 -2.620552,-4.61492 -2.676117,-4.67707 -0.05556,-0.0621 -0.45697,0.22802 -0.892014,0.64481 l -0.79099,0.75782 v 3.91925 3.91925 H 93.40544 89.568982 Z"
         id="path570"
         sodipodi:nodetypes="cscccsssscsssscscccssssssssccsssssssssssssssssssssssscccsssssssscssccccccsssscccccsssccccccccccccccccsssssscssscccccc" />
    </g>
  </g>
</svg>
